<svg width="96" height="66" viewBox="0 0 96 66" fill="none" xmlns="http://www.w3.org/2000/svg">
<rect width="96" height="66" rx="8" fill="#0C5C75"/>
<path d="M23.96 48.48C22.52 48.48 21.12 48.2667 19.76 47.84C18.4 47.4133 17.1333 46.8 15.96 46C14.7867 45.2 13.7467 44.2133 12.84 43.04C11.96 41.84 11.2667 40.5067 10.76 39.04C10.2533 37.5467 10 35.9067 10 34.12C10 32.4133 10.2533 30.84 10.76 29.4C11.2667 27.9333 11.96 26.64 12.84 25.52C13.72 24.4 14.7467 23.4533 15.92 22.68C17.12 21.88 18.4 21.28 19.76 20.88C21.1467 20.4533 22.56 20.24 24 20.24C25.3333 20.24 26.48 20.3733 27.44 20.64C28.4 20.9067 29.1867 21.2 29.8 21.52C30.4133 21.8133 30.8267 22.04 31.04 22.2C31.4133 22.4133 31.7733 22.6667 32.12 22.96C32.4667 23.2533 32.6533 23.6 32.68 24C32.7333 24.2933 32.7067 24.5333 32.6 24.72C32.52 24.9067 32.4133 25.1067 32.28 25.32C32.0667 25.64 31.84 25.88 31.6 26.04C31.3867 26.1733 31.1467 26.24 30.88 26.24C30.6133 26.24 30.3733 26.16 30.16 26C29.9467 25.84 29.6667 25.6533 29.32 25.44C29.16 25.3333 28.84 25.16 28.36 24.92C27.88 24.68 27.2667 24.4533 26.52 24.24C25.7733 24 24.8667 23.88 23.8 23.88C22.44 23.88 21.1333 24.1333 19.88 24.64C18.6533 25.12 17.5733 25.8133 16.64 26.72C15.7067 27.6267 14.9733 28.72 14.44 30C13.9067 31.28 13.64 32.72 13.64 34.32C13.64 35.9467 13.9067 37.4133 14.44 38.72C14.9733 40 15.7067 41.0933 16.64 42C17.6 42.9067 18.6933 43.6 19.92 44.08C21.1467 44.56 22.44 44.8 23.8 44.8C24.8133 44.8 25.6933 44.6933 26.44 44.48C27.2133 44.2667 27.84 44.04 28.32 43.8C28.8267 43.5333 29.1733 43.3333 29.36 43.2C29.6533 43.04 29.9067 42.88 30.12 42.72C30.36 42.56 30.6133 42.48 30.88 42.48C31.1467 42.48 31.3867 42.56 31.6 42.72C31.84 42.8533 32.0667 43.08 32.28 43.4C32.4133 43.5867 32.52 43.8 32.6 44.04C32.7067 44.2533 32.7333 44.4933 32.68 44.76C32.6533 45.16 32.4667 45.5067 32.12 45.8C31.7733 46.0667 31.4133 46.32 31.04 46.56C30.8 46.6667 30.3733 46.8933 29.76 47.24C29.1733 47.56 28.4 47.84 27.44 48.08C26.48 48.3467 25.32 48.48 23.96 48.48Z" fill="white"/>
<path d="M39.5597 48.36C38.813 48.36 38.2664 48.2533 37.9197 48.04C37.5997 47.8267 37.3864 47.5333 37.2797 47.16C37.1997 46.76 37.1597 46.3467 37.1597 45.92V22.84C37.1597 22.4133 37.213 22.0267 37.3197 21.68C37.4264 21.3067 37.6397 21.0133 37.9597 20.8C38.3064 20.56 38.853 20.44 39.5997 20.44H48.1597C49.3864 20.44 50.5464 20.64 51.6397 21.04C52.7597 21.4133 53.7597 22 54.6397 22.8C55.5197 23.5733 56.213 24.56 56.7197 25.76C57.253 26.9333 57.5197 28.3067 57.5197 29.88C57.5197 30.92 57.3597 31.96 57.0397 33C56.7197 34.0133 56.2397 34.96 55.5997 35.84C54.9864 36.6933 54.1997 37.4267 53.2397 38.04C52.2797 38.6533 51.1464 39.0533 49.8397 39.24H41.9997V45.96C41.9997 46.3867 41.9464 46.7867 41.8397 47.16C41.7597 47.5333 41.5464 47.8267 41.1997 48.04C40.8797 48.2533 40.333 48.36 39.5597 48.36ZM56.5997 47.76C55.8264 48.2933 55.1864 48.4933 54.6797 48.36C54.1997 48.2267 53.7197 47.8 53.2397 47.08L46.5197 36.92L51.9197 36.2L57.2397 44.28C57.613 44.8133 57.8397 45.2667 57.9197 45.64C57.9997 46.0133 57.933 46.36 57.7197 46.68C57.5064 47 57.133 47.36 56.5997 47.76ZM41.9997 34.44H48.7597C49.2397 34.44 49.7064 34.36 50.1597 34.2C50.6397 34.0133 51.0664 33.7333 51.4397 33.36C51.813 32.96 52.1064 32.48 52.3197 31.92C52.5597 31.3333 52.6797 30.64 52.6797 29.84C52.6797 28.88 52.493 28.0667 52.1197 27.4C51.7464 26.7067 51.213 26.1867 50.5197 25.84C49.853 25.4667 49.0397 25.28 48.0797 25.28H41.9997V34.44ZM73.3663 48.6C71.4996 48.6 69.8329 48.2667 68.3663 47.6C66.9263 46.9067 65.7129 45.96 64.7263 44.76C63.7396 43.5333 62.9929 42.1467 62.4863 40.6C61.9796 39.0267 61.7263 37.36 61.7263 35.6V22.84C61.7263 22.3867 61.7663 21.9867 61.8463 21.64C61.9529 21.2667 62.1663 20.9733 62.4863 20.76C62.8329 20.52 63.3929 20.4 64.1663 20.4C64.9396 20.4 65.4863 20.52 65.8063 20.76C66.1529 20.9733 66.3663 21.2667 66.4463 21.64C66.5529 21.9867 66.6063 22.4 66.6063 22.88V35.6C66.6063 37.0667 66.8463 38.4267 67.3263 39.68C67.8329 40.9067 68.5929 41.8933 69.6063 42.64C70.6196 43.3867 71.9129 43.76 73.4863 43.76C74.8996 43.76 76.1129 43.4267 77.1263 42.76C78.1396 42.0933 78.9129 41.1467 79.4463 39.92C80.0063 38.6933 80.2863 37.24 80.2863 35.56V22.64C80.2863 22.2133 80.3263 21.84 80.4063 21.52C80.5129 21.2 80.7396 20.9333 81.0863 20.72C81.4329 20.5067 81.9796 20.4 82.7263 20.4C83.4996 20.4 84.0463 20.52 84.3663 20.76C84.7129 20.9733 84.9263 21.2667 85.0063 21.64C85.0863 22.0133 85.1263 22.4267 85.1263 22.88V35.68C85.1263 37.44 84.8729 39.1067 84.3663 40.68C83.8596 42.2267 83.0996 43.6 82.0863 44.8C81.0729 45.9733 79.8329 46.9067 78.3663 47.6C76.9263 48.2667 75.2596 48.6 73.3663 48.6Z" fill="#DC6C4B"/>
<path d="M19.76 47.84L19.311 49.2712L19.311 49.2712L19.76 47.84ZM15.96 46L16.805 44.7607L16.805 44.7607L15.96 46ZM12.84 43.04L11.6304 43.927L11.6415 43.9423L11.6531 43.9572L12.84 43.04ZM10.76 39.04L9.33951 39.522L9.34221 39.5298L10.76 39.04ZM10.76 29.4L12.175 29.8979L12.1778 29.8898L10.76 29.4ZM12.84 25.52L11.6605 24.5933L11.6605 24.5933L12.84 25.52ZM15.92 22.68L16.7455 23.9325L16.7521 23.9281L15.92 22.68ZM19.76 20.88L20.1832 22.319L20.1922 22.3164L20.2011 22.3137L19.76 20.88ZM27.44 20.64L27.8415 19.1947L27.8415 19.1947L27.44 20.64ZM29.8 21.52L29.1062 22.8499L29.1293 22.8619L29.1528 22.8732L29.8 21.52ZM31.04 22.2L30.14 23.4L30.2147 23.456L30.2958 23.5024L31.04 22.2ZM32.12 22.96L33.0889 21.8149L33.0889 21.8149L32.12 22.96ZM32.68 24L31.1833 24.0998L31.189 24.1846L31.2042 24.2683L32.68 24ZM32.6 24.72L31.2976 23.9758L31.2551 24.0503L31.2213 24.1291L32.6 24.72ZM32.28 25.32L33.5281 26.152L33.5403 26.1337L33.552 26.115L32.28 25.32ZM31.6 26.04L32.395 27.312L32.4137 27.3003L32.432 27.2881L31.6 26.04ZM30.16 26L29.26 27.2L29.26 27.2L30.16 26ZM29.32 25.44L28.488 26.6881L28.5106 26.7032L28.5339 26.7175L29.32 25.44ZM28.36 24.92L27.6892 26.2616L27.6892 26.2616L28.36 24.92ZM26.52 24.24L26.061 25.668L26.0843 25.6755L26.1079 25.6823L26.52 24.24ZM19.88 24.64L20.4266 26.0369L20.4344 26.0338L20.4422 26.0307L19.88 24.64ZM16.64 26.72L17.6852 27.7959L17.6852 27.7959L16.64 26.72ZM14.44 30L15.8246 30.5769L15.8246 30.5769L14.44 30ZM14.44 38.72L13.0512 39.2869L13.0554 39.2969L14.44 38.72ZM16.64 42L15.5948 43.0759L15.6024 43.0833L15.6101 43.0905L16.64 42ZM26.44 44.48L26.0411 43.034L26.0279 43.0377L26.44 44.48ZM28.32 43.8L28.9908 45.1416L29.0048 45.1347L29.0186 45.1274L28.32 43.8ZM29.36 43.2L28.6417 41.8832L28.562 41.9266L28.4881 41.9794L29.36 43.2ZM30.12 42.72L29.288 41.4719L29.2533 41.495L29.22 41.52L30.12 42.72ZM31.6 42.72L30.7 43.92L30.782 43.9815L30.8715 44.0312L31.6 42.72ZM32.28 43.4L31.0319 44.2321L31.0453 44.2522L31.0594 44.2719L32.28 43.4ZM32.6 44.04L31.177 44.5143L31.2107 44.6155L31.2584 44.7108L32.6 44.04ZM32.68 44.76L31.2091 44.4658L31.1899 44.5622L31.1833 44.6602L32.68 44.76ZM32.12 45.8L33.0346 46.9889L33.0623 46.9676L33.0889 46.9451L32.12 45.8ZM31.04 46.56L31.6492 47.9307L31.7544 47.884L31.8511 47.8218L31.04 46.56ZM29.76 47.24L30.4783 48.5568L30.4882 48.5514L30.4981 48.5458L29.76 47.24ZM27.44 48.08L27.0762 46.6248L27.0573 46.6295L27.0385 46.6347L27.44 48.08ZM23.96 46.98C22.6707 46.98 21.4222 46.7894 20.209 46.4088L19.311 49.2712C20.8178 49.7439 22.3693 49.98 23.96 49.98V46.98ZM20.209 46.4088C18.9892 46.0261 17.856 45.4773 16.805 44.7607L15.115 47.2393C16.4106 48.1227 17.8108 48.8006 19.311 49.2712L20.209 46.4088ZM16.805 44.7607C15.7675 44.0533 14.8415 43.177 14.0269 42.1228L11.6531 43.9572C12.6518 45.2496 13.8058 46.3467 15.115 47.2393L16.805 44.7607ZM14.0496 42.153C13.2623 41.0793 12.6375 39.8809 12.1778 38.5502L9.34221 39.5298C9.89586 41.1324 10.6577 42.6007 11.6304 43.927L14.0496 42.153ZM12.1805 38.5581C11.733 37.2391 11.5 35.7643 11.5 34.12H8.5C8.5 36.0491 8.77371 37.8543 9.33953 39.5219L12.1805 38.5581ZM11.5 34.12C11.5 32.5631 11.7308 31.1602 12.175 29.8979L9.34503 28.9021C8.77586 30.5198 8.5 32.2636 8.5 34.12H11.5ZM12.1778 29.8898C12.6348 28.5669 13.2515 27.4241 14.0195 26.4467L11.6605 24.5933C10.6685 25.8559 9.89856 27.2997 9.34221 28.9102L12.1778 29.8898ZM14.0195 26.4467C14.8011 25.4519 15.7087 24.6157 16.7455 23.9324L15.0945 21.4276C13.7846 22.2909 12.6389 23.3481 11.6605 24.5933L14.0195 26.4467ZM16.7521 23.9281C17.8284 23.2105 18.9709 22.6756 20.1832 22.319L19.3368 19.441C17.8291 19.8844 16.4116 20.5495 15.0879 21.4319L16.7521 23.9281ZM20.2011 22.3137C21.446 21.9306 22.7107 21.74 24 21.74V18.74C22.4093 18.74 20.8474 18.976 19.3189 19.4463L20.2011 22.3137ZM24 21.74C25.2403 21.74 26.2448 21.8648 27.0385 22.0853L27.8415 19.1947C26.7152 18.8819 25.4263 18.74 24 18.74V21.74ZM27.0385 22.0853C27.9374 22.335 28.6168 22.5946 29.1062 22.8499L30.4938 20.1901C29.7565 19.8054 28.8626 19.4784 27.8415 19.1947L27.0385 22.0853ZM29.1528 22.8732C29.7724 23.1695 30.06 23.34 30.14 23.4L31.94 21C31.5934 20.74 31.0542 20.4571 30.4472 20.1668L29.1528 22.8732ZM30.2958 23.5024C30.5853 23.6678 30.8705 23.8676 31.1511 24.1051L33.0889 21.8149C32.6762 21.4657 32.2414 21.1589 31.7842 20.8976L30.2958 23.5024ZM31.1511 24.1051C31.1773 24.1272 31.1914 24.1427 31.1977 24.1503C31.2037 24.1575 31.2029 24.1579 31.1993 24.1511C31.1955 24.1441 31.1911 24.134 31.1877 24.1221C31.1843 24.1103 31.1835 24.1021 31.1833 24.0998L34.1767 23.9002C34.1193 23.0393 33.7007 22.3326 33.0889 21.8149L31.1511 24.1051ZM31.2042 24.2683C31.2186 24.3477 31.1719 24.1958 31.2976 23.9758L33.9024 25.4642C34.2414 24.8708 34.248 24.2389 34.1558 23.7317L31.2042 24.2683ZM31.2213 24.1291C31.1777 24.2308 31.1098 24.3622 31.008 24.525L33.552 26.115C33.7169 25.8512 33.8623 25.5825 33.9787 25.3109L31.2213 24.1291ZM31.0319 24.4879C30.8938 24.6951 30.7982 24.7718 30.768 24.7919L32.432 27.2881C32.8818 26.9882 33.2395 26.5849 33.5281 26.152L31.0319 24.4879ZM30.805 24.768C30.8193 24.7591 30.8383 24.7503 30.8585 24.7447C30.8781 24.7393 30.8872 24.74 30.88 24.74V27.74C31.4102 27.74 31.9287 27.6034 32.395 27.312L30.805 24.768ZM30.88 24.74C30.8991 24.74 30.9333 24.7433 30.9743 24.757C31.0154 24.7707 31.0447 24.7885 31.06 24.8L29.26 27.2C29.733 27.5547 30.2888 27.74 30.88 27.74V24.74ZM31.06 24.8C30.7962 24.6021 30.4739 24.3888 30.1061 24.1625L28.5339 26.7175C28.8594 26.9178 29.0971 27.0779 29.26 27.2L31.06 24.8ZM30.152 24.1919C29.9029 24.0258 29.5013 23.8136 29.0308 23.5784L27.6892 26.2616C28.1787 26.5064 28.4171 26.6409 28.488 26.6881L30.152 24.1919ZM29.0308 23.5784C28.4402 23.283 27.7321 23.0263 26.9321 22.7977L26.1079 25.6823C26.8012 25.8804 27.3198 26.077 27.6892 26.2616L29.0308 23.5784ZM26.979 22.812C26.0414 22.5106 24.9704 22.38 23.8 22.38V25.38C24.7629 25.38 25.5052 25.4894 26.061 25.668L26.979 22.812ZM23.8 22.38C22.2485 22.38 20.7509 22.67 19.3178 23.2493L20.4422 26.0307C21.5158 25.5967 22.6315 25.38 23.8 25.38V22.38ZM19.3334 23.2431C17.9232 23.795 16.6731 24.5966 15.5948 25.6441L17.6852 27.7959C18.4735 27.0301 19.3835 26.445 20.4266 26.0369L19.3334 23.2431ZM15.5948 25.6441C14.5063 26.7015 13.6617 27.968 13.0554 29.4231L15.8246 30.5769C16.285 29.472 16.907 28.5518 17.6852 27.7959L15.5948 25.6441ZM13.0554 29.4231C12.4351 30.9118 12.14 32.5521 12.14 34.32H15.14C15.14 32.8879 15.3783 31.6482 15.8246 30.5769L13.0554 29.4231ZM12.14 34.32C12.14 36.1117 12.4341 37.7749 13.0512 39.2868L15.8288 38.1532C15.3792 37.0518 15.14 35.7816 15.14 34.32H12.14ZM13.0554 39.2969C13.6617 40.752 14.5063 42.0185 15.5948 43.0759L17.6852 40.9241C16.907 40.1682 16.285 39.248 15.8246 38.1431L13.0554 39.2969ZM15.6101 43.0905C16.7097 44.129 17.967 44.9265 19.3734 45.4769L20.4666 42.6831C19.4197 42.2735 18.4903 41.6843 17.6699 40.9095L15.6101 43.0905ZM19.3734 45.4769C20.7799 46.0272 22.2591 46.3 23.8 46.3V43.3C22.6209 43.3 21.5134 43.0928 20.4666 42.6831L19.3734 45.4769ZM23.8 46.3C24.9128 46.3 25.9378 46.1835 26.8521 45.9223L26.0279 43.0377C25.4489 43.2032 24.7138 43.3 23.8 43.3V46.3ZM26.8389 45.926C27.6649 45.6981 28.3925 45.4408 28.9908 45.1416L27.6492 42.4584C27.2875 42.6392 26.7618 42.8352 26.0411 43.034L26.8389 45.926ZM29.0186 45.1274C29.5228 44.862 29.9526 44.62 30.2319 44.4206L28.4881 41.9794C28.394 42.0466 28.1306 42.2046 27.6214 42.4726L29.0186 45.1274ZM30.0783 44.5168C30.4198 44.3305 30.7367 44.1325 31.02 43.92L29.22 41.52C29.0766 41.6275 28.8868 41.7495 28.6417 41.8832L30.0783 44.5168ZM30.9521 43.9681C30.9645 43.9598 30.9608 43.9643 30.9417 43.9704C30.9217 43.9767 30.8993 43.98 30.88 43.98V40.98C30.2929 40.98 29.7533 41.1617 29.288 41.4719L30.9521 43.9681ZM30.88 43.98C30.8609 43.98 30.8267 43.9767 30.7857 43.963C30.7446 43.9493 30.7153 43.9315 30.7 43.92L32.5 41.52C32.027 41.1653 31.4712 40.98 30.88 40.98V43.98ZM30.8715 44.0312C30.8513 44.02 30.8585 44.0198 30.8893 44.0507C30.9206 44.0819 30.9696 44.1385 31.0319 44.2321L33.5281 42.5679C33.2322 42.1241 32.844 41.6952 32.3285 41.4088L30.8715 44.0312ZM31.0594 44.2719C31.0974 44.325 31.1394 44.4017 31.177 44.5143L34.023 43.5657C33.9006 43.1983 33.7293 42.8483 33.5006 42.5281L31.0594 44.2719ZM31.2584 44.7108C31.2316 44.6572 31.2151 44.5993 31.2092 44.5456C31.2035 44.4943 31.2093 44.465 31.2091 44.4658L34.1509 45.0542C34.26 44.5085 34.218 43.922 33.9416 43.3692L31.2584 44.7108ZM31.1833 44.6602C31.1835 44.6579 31.1843 44.6497 31.1877 44.6379C31.1911 44.626 31.1955 44.6159 31.1993 44.6089C31.2029 44.6021 31.2037 44.6025 31.1977 44.6097C31.1914 44.6172 31.1773 44.6328 31.1511 44.6549L33.0889 46.9451C33.7007 46.4274 34.1193 45.7207 34.1767 44.8598L31.1833 44.6602ZM31.2054 44.6111C30.8927 44.8516 30.5672 45.0807 30.2289 45.2982L31.8511 47.8218C32.2594 47.5593 32.654 47.2817 33.0346 46.9889L31.2054 44.6111ZM30.4308 45.1893C30.1158 45.3293 29.63 45.5904 29.0219 45.9342L30.4981 48.5458C31.1166 48.1962 31.4842 48.004 31.6492 47.9307L30.4308 45.1893ZM29.0417 45.9232C28.6065 46.1606 27.9658 46.4024 27.0762 46.6248L27.8038 49.5352C28.8342 49.2776 29.7402 48.9594 30.4783 48.5568L29.0417 45.9232ZM27.0385 46.6347C26.247 46.8546 25.23 46.98 23.96 46.98V49.98C25.41 49.98 26.713 49.8387 27.8415 49.5253L27.0385 46.6347ZM37.9197 48.04L37.0876 49.2881L37.1103 49.3032L37.1335 49.3175L37.9197 48.04ZM37.2797 47.16L35.8088 47.4542L35.8207 47.5137L35.8374 47.5721L37.2797 47.16ZM37.3197 21.68L38.7534 22.1211L38.7578 22.1066L38.762 22.0921L37.3197 21.68ZM37.9597 20.8L38.7917 22.0481L38.8027 22.0408L38.8135 22.0333L37.9597 20.8ZM51.6397 21.04L51.1243 22.4487L51.1447 22.4562L51.1653 22.463L51.6397 21.04ZM54.6397 22.8L53.6307 23.9099L53.64 23.9184L53.6495 23.9267L54.6397 22.8ZM56.7197 25.76L55.3378 26.3435L55.3457 26.3622L55.3541 26.3807L56.7197 25.76ZM57.0397 33L58.4701 33.4517L58.4734 33.4411L57.0397 33ZM55.5997 35.84L54.3866 34.9577L54.3817 34.9645L55.5997 35.84ZM53.2397 38.04L54.0473 39.304L53.2397 38.04ZM49.8397 39.24V40.74H49.9463L50.0518 40.7249L49.8397 39.24ZM41.9997 39.24V37.74H40.4997V39.24H41.9997ZM41.8397 47.16L40.3974 46.7479L40.3835 46.7964L40.373 46.8457L41.8397 47.16ZM41.1997 48.04L40.4135 46.7625L40.3903 46.7768L40.3676 46.7919L41.1997 48.04ZM56.5997 47.76L57.4513 48.9948L57.4758 48.9779L57.4997 48.96L56.5997 47.76ZM54.6797 48.36L54.2782 49.8053L54.2881 49.808L54.2979 49.8106L54.6797 48.36ZM53.2397 47.08L51.9886 47.9075L51.9916 47.9121L53.2397 47.08ZM46.5197 36.92L46.3214 35.4332L43.9472 35.7497L45.2686 37.7475L46.5197 36.92ZM51.9197 36.2L53.1725 35.3751L52.6547 34.5887L51.7214 34.7132L51.9197 36.2ZM57.2397 44.28L55.9869 45.1049L55.9986 45.1227L56.0108 45.1402L57.2397 44.28ZM57.7197 46.68L58.9678 47.5121L58.9678 47.5121L57.7197 46.68ZM41.9997 34.44H40.4997V35.94H41.9997V34.44ZM50.1597 34.2L50.6589 35.6145L50.6813 35.6066L50.7034 35.598L50.1597 34.2ZM51.4397 33.36L52.5003 34.4207L52.5186 34.4024L52.5363 34.3835L51.4397 33.36ZM52.3197 31.92L50.9314 31.3521L50.9245 31.3689L50.918 31.386L52.3197 31.92ZM52.1197 27.4L50.799 28.1111L50.8049 28.1221L50.8109 28.1329L52.1197 27.4ZM50.5197 25.84L49.7868 27.1488L49.8174 27.1659L49.8489 27.1816L50.5197 25.84ZM41.9997 25.28V23.78H40.4997V25.28H41.9997ZM39.5597 46.86C39.2525 46.86 39.0299 46.8376 38.877 46.8078C38.7196 46.7771 38.6809 46.7472 38.7058 46.7625L37.1335 49.3175C37.842 49.7535 38.7334 49.86 39.5597 49.86V46.86ZM38.7517 46.7919C38.74 46.7841 38.7344 46.779 38.7328 46.7775C38.7313 46.7761 38.7317 46.7763 38.7328 46.7777C38.7338 46.7792 38.7335 46.7791 38.732 46.7759C38.7304 46.7726 38.7265 46.7639 38.722 46.7479L35.8374 47.5721C36.0408 48.2841 36.4684 48.8752 37.0876 49.2881L38.7517 46.7919ZM38.7506 46.8658C38.6908 46.567 38.6597 46.2524 38.6597 45.92H35.6597C35.6597 46.4409 35.7086 46.953 35.8088 47.4542L38.7506 46.8658ZM38.6597 45.92V22.84H35.6597V45.92H38.6597ZM38.6597 22.84C38.6597 22.5372 38.6976 22.3023 38.7534 22.1211L35.886 21.2389C35.7284 21.751 35.6597 22.2894 35.6597 22.84H38.6597ZM38.762 22.0921C38.7665 22.0761 38.7704 22.0674 38.772 22.0641C38.7735 22.0609 38.7738 22.0608 38.7728 22.0623C38.7717 22.0637 38.7713 22.0639 38.7728 22.0625C38.7744 22.061 38.78 22.0559 38.7917 22.0481L37.1276 19.5519C36.5084 19.9648 36.0808 20.5559 35.8774 21.2679L38.762 22.0921ZM38.8135 22.0333C38.783 22.0544 38.8097 22.0262 38.9513 21.9951C39.0907 21.9645 39.301 21.94 39.5997 21.94V18.94C38.7545 18.94 37.8318 19.0641 37.1059 19.5667L38.8135 22.0333ZM39.5997 21.94H48.1597V18.94H39.5997V21.94ZM48.1597 21.94C49.2201 21.94 50.2048 22.1123 51.1243 22.4487L52.1551 19.6313C50.8879 19.1677 49.5526 18.94 48.1597 18.94V21.94ZM51.1653 22.463C52.0858 22.7698 52.904 23.2493 53.6307 23.9099L55.6487 21.6901C54.6154 20.7507 53.4336 20.0568 52.114 19.617L51.1653 22.463ZM53.6495 23.9267C54.3415 24.5348 54.9092 25.3282 55.3378 26.3435L58.1016 25.1765C57.5169 23.7918 56.6979 22.6118 55.6299 21.6733L53.6495 23.9267ZM55.3541 26.3807C55.7815 27.321 56.0197 28.4746 56.0197 29.88H59.0197C59.0197 28.1388 58.7245 26.5457 58.0852 25.1393L55.3541 26.3807ZM56.0197 29.88C56.0197 30.7637 55.8841 31.6551 55.606 32.5589L58.4734 33.4411C58.8353 32.2649 59.0197 31.0763 59.0197 29.88H56.0197ZM55.6093 32.5483C55.3392 33.4036 54.9337 34.2054 54.3866 34.9577L56.8128 36.7223C57.5457 35.7146 58.1002 34.623 58.4701 33.4517L55.6093 32.5483ZM54.3817 34.9645C53.8883 35.651 53.2454 36.2563 52.4321 36.776L54.0473 39.304C55.1539 38.597 56.0844 37.7357 56.8177 36.7155L54.3817 34.9645ZM52.4321 36.776C51.679 37.2571 50.7557 37.5939 49.6276 37.7551L50.0518 40.7249C51.537 40.5128 52.8804 40.0496 54.0473 39.304L52.4321 36.776ZM49.8397 37.74H41.9997V40.74H49.8397V37.74ZM40.4997 39.24V45.96H43.4997V39.24H40.4997ZM40.4997 45.96C40.4997 46.2609 40.4622 46.5211 40.3974 46.7479L43.282 47.5721C43.4305 47.0522 43.4997 46.5124 43.4997 45.96H40.4997ZM40.373 46.8457C40.3733 46.8443 40.3755 46.8351 40.3817 46.8209C40.3881 46.8065 40.3966 46.7915 40.4066 46.7777C40.4165 46.7641 40.4248 46.7559 40.4283 46.7527C40.4316 46.7498 40.4279 46.7537 40.4135 46.7625L41.9858 49.3175C42.6556 48.9053 43.1344 48.2768 43.3064 47.4743L40.373 46.8457ZM40.3676 46.7919C40.4291 46.7509 40.4212 46.7768 40.2624 46.8078C40.1122 46.8371 39.8841 46.86 39.5597 46.86V49.86C40.3825 49.86 41.3189 49.7633 42.0317 49.2881L40.3676 46.7919ZM55.7481 46.5252C55.4398 46.7378 55.2236 46.8372 55.0923 46.8783C54.967 46.9174 54.9754 46.8868 55.0614 46.9094L54.2979 49.8106C55.4638 50.1174 56.5854 49.592 57.4513 48.9948L55.7481 46.5252ZM55.0812 46.9147C55.1159 46.9244 55.073 46.9226 54.9562 46.8189C54.8387 46.7144 54.6795 46.5356 54.4878 46.2479L51.9916 47.9121C52.5374 48.7308 53.2743 49.5264 54.2782 49.8053L55.0812 46.9147ZM54.4908 46.2525L47.7708 36.0925L45.2686 37.7475L51.9886 47.9075L54.4908 46.2525ZM46.7179 38.4068L52.1179 37.6868L51.7214 34.7132L46.3214 35.4332L46.7179 38.4068ZM50.6669 37.0249L55.9869 45.1049L58.4925 43.4551L53.1725 35.3751L50.6669 37.0249ZM56.0108 45.1402C56.3389 45.6089 56.4346 45.8685 56.453 45.9543L59.3864 45.3257C59.2448 44.6649 58.8871 44.0178 58.4685 43.4198L56.0108 45.1402ZM56.453 45.9543C56.454 45.959 56.4527 45.9547 56.4524 45.9428C56.4522 45.9305 56.4532 45.9146 56.4567 45.8967C56.4601 45.8789 56.465 45.8643 56.4692 45.8542C56.4734 45.8443 56.4754 45.8422 56.4716 45.8479L58.9678 47.5121C59.4039 46.8579 59.5519 46.0982 59.3864 45.3257L56.453 45.9543ZM56.4716 45.8479C56.3974 45.9593 56.1815 46.1986 55.6997 46.56L57.4997 48.96C58.0845 48.5214 58.6154 48.0407 58.9678 47.5121L56.4716 45.8479ZM41.9997 35.94H48.7597V32.94H41.9997V35.94ZM48.7597 35.94C49.41 35.94 50.0455 35.831 50.6589 35.6145L49.6605 32.7855C49.3672 32.889 49.0694 32.94 48.7597 32.94V35.94ZM50.7034 35.598C51.3822 35.334 51.9837 34.9373 52.5003 34.4207L50.379 32.2993C50.149 32.5294 49.8972 32.6926 49.616 32.802L50.7034 35.598ZM52.5363 34.3835C53.0541 33.8286 53.4456 33.178 53.7214 32.454L50.918 31.386C50.7671 31.782 50.5719 32.0914 50.3431 32.3365L52.5363 34.3835ZM53.708 32.4879C54.0383 31.6805 54.1797 30.7857 54.1797 29.84H51.1797C51.1797 30.4943 51.0811 30.9861 50.9314 31.3521L53.708 32.4879ZM54.1797 29.84C54.1797 28.6881 53.9554 27.6081 53.4284 26.6671L50.8109 28.1329C51.0306 28.5252 51.1797 29.0719 51.1797 29.84H54.1797ZM53.4404 26.6888C52.923 25.728 52.1649 24.9856 51.1905 24.4984L49.8489 27.1816C50.2611 27.3878 50.5697 27.6853 50.799 28.1111L53.4404 26.6888ZM51.2526 24.5312C50.3116 24.0043 49.2316 23.78 48.0797 23.78V26.78C48.8478 26.78 49.3945 26.9291 49.7868 27.1488L51.2526 24.5312ZM48.0797 23.78H41.9997V26.78H48.0797V23.78ZM40.4997 25.28V34.44H43.4997V25.28H40.4997ZM68.3663 47.6L67.7155 48.9515L67.7305 48.9587L67.7455 48.9655L68.3663 47.6ZM64.7263 44.76L63.5574 45.7001L63.5625 45.7064L63.5676 45.7127L64.7263 44.76ZM62.4863 40.6L61.0584 41.0598L61.0608 41.067L62.4863 40.6ZM61.8463 21.64L60.404 21.2279L60.3934 21.2651L60.3847 21.3027L61.8463 21.64ZM62.4863 20.76L63.3183 22.0081L63.3292 22.0008L63.3401 21.9933L62.4863 20.76ZM65.8063 20.76L64.9063 21.96L64.9614 22.0014L65.0201 22.0375L65.8063 20.76ZM66.4463 21.64L64.9795 21.9543L64.9933 22.0184L65.0126 22.0811L66.4463 21.64ZM67.3263 39.68L65.9255 40.2165L65.9324 40.2346L65.9399 40.2526L67.3263 39.68ZM69.6063 42.64L70.496 41.4324L70.496 41.4324L69.6063 42.64ZM77.1263 42.76L76.3018 41.5069L76.3018 41.5069L77.1263 42.76ZM79.4463 39.92L78.0817 39.2971L78.0761 39.3094L78.0706 39.3219L79.4463 39.92ZM80.4063 21.52L78.9832 21.0457L78.965 21.1003L78.951 21.1562L80.4063 21.52ZM81.0863 20.72L81.8724 21.9975L81.8724 21.9975L81.0863 20.72ZM84.3663 20.76L83.4662 21.96L83.5214 22.0014L83.5801 22.0375L84.3663 20.76ZM85.0063 21.64L86.473 21.3257L86.473 21.3257L85.0063 21.64ZM84.3663 40.68L85.7917 41.147L85.794 41.1398L84.3663 40.68ZM82.0863 44.8L83.2215 45.7804L83.2269 45.7741L83.2323 45.7678L82.0863 44.8ZM78.3663 47.6L78.9965 48.9612L79.0073 48.9561L78.3663 47.6ZM73.3663 47.1C71.6799 47.1 70.2301 46.7995 68.987 46.2345L67.7455 48.9655C69.4357 49.7338 71.3192 50.1 73.3663 50.1V47.1ZM69.017 46.2485C67.7674 45.6469 66.7292 44.8342 65.8849 43.8073L63.5676 45.7127C64.6967 47.0858 66.0851 48.1665 67.7155 48.9515L69.017 46.2485ZM65.8951 43.8199C65.0256 42.7389 64.364 41.5137 63.9117 40.133L61.0608 41.067C61.6218 42.7796 62.4535 44.3277 63.5574 45.7001L65.8951 43.8199ZM63.914 40.1402C63.4582 38.7248 63.2263 37.214 63.2263 35.6H60.2263C60.2263 37.506 60.5009 39.3285 61.0585 41.0598L63.914 40.1402ZM63.2263 35.6V22.84H60.2263V35.6H63.2263ZM63.2263 22.84C63.2263 22.4709 63.2592 22.188 63.3078 21.9773L60.3847 21.3027C60.2733 21.7853 60.2263 22.3024 60.2263 22.84H63.2263ZM63.2885 22.0521C63.2931 22.0361 63.2969 22.0274 63.2985 22.0241C63.3 22.0209 63.3004 22.0208 63.2994 22.0223C63.2983 22.0237 63.2979 22.0239 63.2994 22.0225C63.301 22.021 63.3066 22.0159 63.3183 22.0081L61.6542 19.5119C61.0349 19.9248 60.6074 20.5159 60.404 21.2279L63.2885 22.0521ZM63.3401 21.9933C63.3037 22.0185 63.3289 21.9892 63.4805 21.9567C63.6285 21.925 63.8511 21.9 64.1663 21.9V18.9C63.3078 18.9 62.3645 19.0199 61.6324 19.5267L63.3401 21.9933ZM64.1663 21.9C64.4825 21.9 64.6984 21.9252 64.8346 21.9551C64.9766 21.9863 64.972 22.0093 64.9063 21.96L66.7063 19.56C65.9769 19.013 65.0065 18.9 64.1663 18.9V21.9ZM65.0201 22.0375C65.0345 22.0463 65.0381 22.0502 65.0349 22.0473C65.0314 22.0441 65.0231 22.0359 65.0131 22.0223C65.0031 22.0085 64.9946 21.9935 64.9883 21.9791C64.982 21.9649 64.9798 21.9557 64.9795 21.9543L67.913 21.3257C67.741 20.5232 67.2622 19.8947 66.5924 19.4825L65.0201 22.0375ZM65.0126 22.0811C65.0637 22.2472 65.1063 22.5043 65.1063 22.88H68.1063C68.1063 22.2957 68.0421 21.7261 67.8799 21.1989L65.0126 22.0811ZM65.1063 22.88V35.6H68.1063V22.88H65.1063ZM65.1063 35.6C65.1063 37.233 65.374 38.7766 65.9255 40.2165L68.727 39.1435C68.3185 38.0767 68.1063 36.9003 68.1063 35.6H65.1063ZM65.9399 40.2526C66.5451 41.7179 67.4706 42.9296 68.7165 43.8476L70.496 41.4324C69.7153 40.8571 69.1207 40.0954 68.7126 39.1074L65.9399 40.2526ZM68.7165 43.8476C70.046 44.8272 71.6738 45.26 73.4863 45.26V42.26C72.1521 42.26 71.1932 41.9461 70.496 41.4324L68.7165 43.8476ZM73.4863 45.26C75.1431 45.26 76.6542 44.8661 77.9507 44.0131L76.3018 41.5069C75.5716 41.9873 74.6561 42.26 73.4863 42.26V45.26ZM77.9507 44.0131C79.2322 43.17 80.1847 41.9835 80.8219 40.5181L78.0706 39.3219C77.6411 40.3098 77.047 41.0167 76.3018 41.5069L77.9507 44.0131ZM80.8108 40.5429C81.4792 39.0788 81.7863 37.4036 81.7863 35.56H78.7863C78.7863 37.0764 78.5333 38.3078 78.0817 39.2971L80.8108 40.5429ZM81.7863 35.56V22.64H78.7863V35.56H81.7863ZM81.7863 22.64C81.7863 22.3022 81.8184 22.056 81.8615 21.8838L78.951 21.1562C78.8341 21.624 78.7863 22.1245 78.7863 22.64H81.7863ZM81.8293 21.9943C81.8251 22.0069 81.8194 22.0195 81.8129 22.031C81.8065 22.0424 81.8011 22.0492 81.7992 22.0515C81.7953 22.056 81.8119 22.0347 81.8724 21.9975L80.3001 19.4425C79.718 19.8007 79.2231 20.326 78.9832 21.0457L81.8293 21.9943ZM81.8724 21.9975C81.8474 22.0128 81.8862 21.9829 82.0435 21.9522C82.1965 21.9224 82.419 21.9 82.7263 21.9V18.9C81.8999 18.9 81.0086 19.0065 80.3001 19.4425L81.8724 21.9975ZM82.7263 21.9C83.0425 21.9 83.2584 21.9252 83.3946 21.9551C83.5366 21.9863 83.532 22.0093 83.4662 21.96L85.2663 19.56C84.5369 19.013 83.5665 18.9 82.7263 18.9V21.9ZM83.5801 22.0375C83.5945 22.0463 83.5981 22.0502 83.5949 22.0473C83.5914 22.0441 83.5831 22.0359 83.5731 22.0223C83.5631 22.0085 83.5546 21.9935 83.5483 21.9791C83.542 21.9649 83.5398 21.9557 83.5395 21.9543L86.473 21.3257C86.301 20.5232 85.8222 19.8947 85.1524 19.4825L83.5801 22.0375ZM83.5395 21.9543C83.5938 22.2072 83.6263 22.5133 83.6263 22.88H86.6263C86.6263 22.3401 86.5787 21.8194 86.473 21.3257L83.5395 21.9543ZM83.6263 22.88V35.68H86.6263V22.88H83.6263ZM83.6263 35.68C83.6263 37.294 83.3943 38.8048 82.9385 40.2202L85.794 41.1398C86.3516 39.4085 86.6263 37.586 86.6263 35.68H83.6263ZM82.9408 40.213C82.492 41.5831 81.8245 42.785 80.9402 43.8322L83.2323 45.7678C84.3746 44.415 85.2272 42.8702 85.7917 41.147L82.9408 40.213ZM80.951 43.8196C80.0807 44.8273 79.0117 45.6357 77.7252 46.2439L79.0073 48.9561C80.6541 48.1776 82.0651 47.1194 83.2215 45.7804L80.951 43.8196ZM77.7361 46.2388C76.528 46.7981 75.0834 47.1 73.3663 47.1V50.1C75.4358 50.1 77.3245 49.7353 78.9964 48.9612L77.7361 46.2388Z" fill="white"/>
</svg>
