<?xml version="1.0" encoding="UTF-8" standalone="no"?>
<!-- Created with Inkscape (http://www.inkscape.org/) -->

<svg
   width="64mm"
   height="9.3384933mm"
   viewBox="0 0 64 9.3384933"
   version="1.1"
   id="svg5"
   inkscape:version="1.2.2 (732a01da63, 2022-12-09, custom)"
   sodipodi:docname="logotype.svg"
   xmlns:inkscape="http://www.inkscape.org/namespaces/inkscape"
   xmlns:sodipodi="http://sodipodi.sourceforge.net/DTD/sodipodi-0.dtd"
   xmlns="http://www.w3.org/2000/svg"
   xmlns:svg="http://www.w3.org/2000/svg">
  <sodipodi:namedview
     id="namedview7"
     pagecolor="#505050"
     bordercolor="#eeeeee"
     borderopacity="1"
     inkscape:showpageshadow="0"
     inkscape:pageopacity="0"
     inkscape:pagecheckerboard="0"
     inkscape:deskcolor="#505050"
     inkscape:document-units="mm"
     showgrid="false"
     showguides="false"
     inkscape:zoom="3.3923683"
     inkscape:cx="43.922118"
     inkscape:cy="74.726557"
     inkscape:window-width="1316"
     inkscape:window-height="704"
     inkscape:window-x="0"
     inkscape:window-y="0"
     inkscape:window-maximized="1"
     inkscape:current-layer="layer1" />
  <defs
     id="defs2" />
  <g
     inkscape:label="Layer 1"
     inkscape:groupmode="layer"
     id="layer1"
     transform="translate(-80.873305,-137.29808)">
    <g
       id="g1343"
       transform="matrix(0.73330754,0,0,0.73330754,21.575589,36.623651)">
      <g
         aria-label="CRU"
         id="text113"
         style="font-weight:bold;font-size:16.9333px;font-family:'Nimbus Mono PS';-inkscape-font-specification:'Nimbus Mono PS Bold';fill:none;stroke:#000000;stroke-width:0.695177;stroke-dasharray:none">
        <path
           d="m 87.205343,149.65838 q -0.829731,0 -1.676396,-0.23707 -0.846665,-0.254 -1.625597,-0.74506 -0.778932,-0.508 -1.388531,-1.23614 -0.592665,-0.74506 -0.948265,-1.71026 -0.355599,-0.98213 -0.355599,-2.16746 0,-1.1684 0.355599,-2.09973 0.3556,-0.94827 0.948265,-1.65946 0.609599,-0.7112 1.371597,-1.18533 0.778932,-0.47414 1.625597,-0.7112 0.863599,-0.254 1.710264,-0.27094 0.863598,0 1.49013,0.18627 0.626532,0.18627 1.015998,0.4064 0.389466,0.2032 0.524932,0.28787 0.270933,0.16933 0.507999,0.38946 0.254,0.2032 0.270933,0.508 0.01693,0.2032 -0.0508,0.37253 -0.06773,0.1524 -0.186266,0.32174 -0.2032,0.28786 -0.406399,0.42333 -0.2032,0.13546 -0.4064,0.13546 -0.186266,0 -0.355599,-0.1016 -0.1524,-0.1016 -0.389466,-0.25399 -0.1016,-0.0677 -0.372532,-0.2032 -0.254,-0.1524 -0.694266,-0.27094 -0.423332,-0.11853 -1.032931,-0.11853 -0.728132,0 -1.422397,0.254 -0.694265,0.254 -1.253064,0.762 -0.541866,0.49106 -0.863599,1.23613 -0.321732,0.72813 -0.321732,1.6764 0,0.94826 0.321732,1.69333 0.321733,0.72813 0.863599,1.23613 0.558799,0.49106 1.253064,0.74506 0.694265,0.254 1.422397,0.254 0.575732,0 0.982131,-0.1016 0.423333,-0.11853 0.711199,-0.27093 0.304799,-0.16933 0.457199,-0.254 0.186266,-0.11853 0.355599,-0.22013 0.169333,-0.1016 0.3556,-0.1016 0.203199,0 0.389466,0.13546 0.203199,0.13547 0.389466,0.44027 0.118533,0.18626 0.186266,0.3556 0.06773,0.16933 0.0508,0.3556 -0.01693,0.3048 -0.270933,0.52493 -0.237066,0.2032 -0.507999,0.3556 -0.135466,0.0847 -0.524932,0.3048 -0.372533,0.2032 -0.999065,0.37253 -0.626532,0.18627 -1.507064,0.18627 z"
           style="font-weight:500;font-family:fredoka;-inkscape-font-specification:'fredoka Medium';fill:#ffffff;stroke:#ffffff;stroke-width:0.695177;stroke-dasharray:none;stroke-opacity:1"
           id="path5842" />
        <path
           d="m 97.832586,145.70352 c -0.09207,0.0112 -0.440894,0.0236 -0.53104,0.0313 -0.921184,0.0782 -1.745225,-0.0175 -2.543975,-0.0222 v 2.84479 c 0,0.18062 -0.02258,0.34995 -0.06773,0.508 -0.03387,0.15805 -0.124178,0.28222 -0.270933,0.37253 -0.135467,0.0903 -0.366888,0.13547 -0.694265,0.13547 v 2.6e-4 c -0.316089,0 -0.547511,-0.0452 -0.694266,-0.13547 -0.135466,-0.0903 -0.225777,-0.21448 -0.270932,-0.37253 -0.03387,-0.16933 -0.0508,-0.34431 -0.0508,-0.52493 v -9.77052 c 0,-0.18062 0.02258,-0.34431 0.06773,-0.49106 0.04515,-0.15805 0.135464,-0.28222 0.270933,-0.37253 0.146755,-0.1016 0.378177,-0.1524 0.694265,-0.1524 h 3.623726 c 0.519288,0 1.010354,0.0847 1.473197,0.254 0.474133,0.15804 0.897466,0.40639 1.270004,0.74506 0.37253,0.32738 0.66604,0.74507 0.88053,1.25307 0.22577,0.49671 0.33866,1.07808 0.33866,1.74413 0,0.44026 -0.0677,0.88052 -0.2032,1.32079 -0.13546,0.42898 -0.33866,0.82974 -0.60959,1.20227 -0.21818,0.29293 -0.50099,0.5314 -0.801827,0.72485 -0.08496,0.0546 -0.308454,0.25176 -0.404105,0.31522 m 0.194907,-0.35338 1.705285,2.88622 c 0.14019,0.23727 0.254,0.41769 0.28787,0.57574 0.0339,0.15804 0.006,0.30479 -0.0847,0.44026 -0.0903,0.13547 -0.24836,0.28787 -0.47413,0.4572 h 3e-5 c -0.32739,0.22578 -0.59831,0.31045 -0.8128,0.254 -0.203204,-0.0565 -0.511568,-0.3861 -0.714768,-0.69088 l -1.918779,-3.34934 m -2.734314,-1.85257 h 2.861728 c 0.203199,0 0.400754,-0.0339 0.592665,-0.1016 0.2032,-0.079 0.383822,-0.19755 0.541866,-0.3556 0.158044,-0.16933 0.282221,-0.37253 0.372532,-0.6096 0.1016,-0.24835 0.1524,-0.54186 0.1524,-0.88053 0,-0.4064 -0.07902,-0.75071 -0.237066,-1.03293 -0.158044,-0.29351 -0.383821,-0.51364 -0.677332,-0.6604 -0.282222,-0.15804 -0.626532,-0.23706 -1.032931,-0.23706 h -2.573862 z"
           style="font-weight:500;font-family:fredoka;-inkscape-font-specification:'fredoka Medium';fill:#dc6c4b;fill-opacity:1;stroke:#ffffff;stroke-width:0.695177;stroke-dasharray:none;stroke-opacity:1"
           id="path5844"
           sodipodi:nodetypes="cscsccscccssccsscccsccsccssccccccscccsccsccs" />
        <path
           d="m 108.03325,149.67531 q -1.18533,0 -2.11666,-0.42333 -0.9144,-0.44027 -1.54093,-1.20227 -0.62654,-0.77893 -0.94827,-1.76106 -0.32173,-0.99906 -0.32173,-2.11666 v -5.40173 q 0,-0.28786 0.0508,-0.50799 0.0677,-0.23707 0.27093,-0.37254 0.22013,-0.1524 0.7112,-0.1524 0.49107,0 0.69427,0.1524 0.22013,0.13547 0.27093,0.37254 0.0677,0.22013 0.0677,0.52493 v 5.38479 q 0,0.93133 0.3048,1.72719 0.32173,0.77894 0.9652,1.25307 0.64346,0.47413 1.64253,0.47413 0.89746,0 1.54093,-0.42333 0.64346,-0.42333 0.98213,-1.20227 0.3556,-0.77893 0.3556,-1.84573 v -5.46945 q 0,-0.27093 0.0508,-0.47413 0.0677,-0.2032 0.28787,-0.33867 0.22013,-0.13547 0.69426,-0.13547 0.49107,0 0.69427,0.1524 0.22013,0.13547 0.27093,0.37254 0.0508,0.23706 0.0508,0.52493 v 5.41865 q 0,1.1176 -0.32173,2.11667 -0.32174,0.98213 -0.9652,1.74413 -0.64347,0.74506 -1.5748,1.18533 -0.9144,0.42333 -2.11666,0.42333 z"
           style="font-weight:500;font-family:fredoka;-inkscape-font-specification:'fredoka Medium';fill:#dc6c4b;fill-opacity:1;stroke:#ffffff;stroke-width:0.695177;stroke-dasharray:none;stroke-opacity:1"
           id="path5846" />
      </g>
      <text
         xml:space="preserve"
         style="font-style:normal;font-variant:normal;font-weight:500;font-stretch:normal;font-size:5.64444px;font-family:fredoka;-inkscape-font-specification:'fredoka Medium';fill:#dc6c4b;fill-opacity:1;stroke:#ffffff;stroke-width:0.600001;stroke-dasharray:none;stroke-opacity:1"
         x="124.18602"
         y="144.85826"
         id="text9107"><tspan
           sodipodi:role="line"
           id="tspan9105"
           style="font-size:5.64444px;fill:#fffff0;fill-opacity:1;stroke:none;stroke-width:0.6"
           x="124.18602"
           y="144.85826">O cardápio do RU</tspan></text>
      <path
         style="fill:none;fill-opacity:1;stroke:#ffffff;stroke-width:0.600001;stroke-dasharray:none;stroke-opacity:1"
         d="m 118.8109,139.81225 v 7.58311"
         id="path10041" />
    </g>
  </g>
</svg>
