<svg width="254" height="48" viewBox="0 0 254 48" fill="none" xmlns="http://www.w3.org/2000/svg">
<path d="M15.96 39.48C14.52 39.48 13.12 39.2667 11.76 38.84C10.4 38.4133 9.13333 37.8 7.96 37C6.78667 36.2 5.74667 35.2133 4.84 34.04C3.96 32.84 3.26667 31.5067 2.76 30.04C2.25333 28.5467 2 26.9067 2 25.12C2 23.4133 2.25333 21.84 2.76 20.4C3.26667 18.9333 3.96 17.64 4.84 16.52C5.72 15.4 6.74667 14.4533 7.92 13.68C9.12 12.88 10.4 12.28 11.76 11.88C13.1467 11.4533 14.56 11.24 16 11.24C17.3333 11.24 18.48 11.3733 19.44 11.64C20.4 11.9067 21.1867 12.2 21.8 12.52C22.4133 12.8133 22.8267 13.04 23.04 13.2C23.4133 13.4133 23.7733 13.6667 24.12 13.96C24.4667 14.2533 24.6533 14.6 24.68 15C24.7333 15.2933 24.7067 15.5333 24.6 15.72C24.52 15.9067 24.4133 16.1067 24.28 16.32C24.0667 16.64 23.84 16.88 23.6 17.04C23.3867 17.1733 23.1467 17.24 22.88 17.24C22.6133 17.24 22.3733 17.16 22.16 17C21.9467 16.84 21.6667 16.6533 21.32 16.44C21.16 16.3333 20.84 16.16 20.36 15.92C19.88 15.68 19.2667 15.4533 18.52 15.24C17.7733 15 16.8667 14.88 15.8 14.88C14.44 14.88 13.1333 15.1333 11.88 15.64C10.6533 16.12 9.57333 16.8133 8.64 17.72C7.70667 18.6267 6.97333 19.72 6.44 21C5.90667 22.28 5.64 23.72 5.64 25.32C5.64 26.9467 5.90667 28.4133 6.44 29.72C6.97333 31 7.70667 32.0933 8.64 33C9.6 33.9067 10.6933 34.6 11.92 35.08C13.1467 35.56 14.44 35.8 15.8 35.8C16.8133 35.8 17.6933 35.6933 18.44 35.48C19.2133 35.2667 19.84 35.04 20.32 34.8C20.8267 34.5333 21.1733 34.3333 21.36 34.2C21.6533 34.04 21.9067 33.88 22.12 33.72C22.36 33.56 22.6133 33.48 22.88 33.48C23.1467 33.48 23.3867 33.56 23.6 33.72C23.84 33.8533 24.0667 34.08 24.28 34.4C24.4133 34.5867 24.52 34.8 24.6 35.04C24.7067 35.2533 24.7333 35.4933 24.68 35.76C24.6533 36.16 24.4667 36.5067 24.12 36.8C23.7733 37.0667 23.4133 37.32 23.04 37.56C22.8 37.6667 22.3733 37.8933 21.76 38.24C21.1733 38.56 20.4 38.84 19.44 39.08C18.48 39.3467 17.32 39.48 15.96 39.48Z" fill="white"/>
<path d="M31.5597 39.36C30.813 39.36 30.2664 39.2533 29.9197 39.04C29.5997 38.8267 29.3864 38.5333 29.2797 38.16C29.1997 37.76 29.1597 37.3467 29.1597 36.92V13.84C29.1597 13.4133 29.213 13.0267 29.3197 12.68C29.4264 12.3067 29.6397 12.0133 29.9597 11.8C30.3064 11.56 30.853 11.44 31.5997 11.44H40.1597C41.3864 11.44 42.5464 11.64 43.6397 12.04C44.7597 12.4133 45.7597 13 46.6397 13.8C47.5197 14.5733 48.213 15.56 48.7197 16.76C49.253 17.9333 49.5197 19.3067 49.5197 20.88C49.5197 21.92 49.3597 22.96 49.0397 24C48.7197 25.0133 48.2397 25.96 47.5997 26.84C46.9864 27.6933 46.1997 28.4267 45.2397 29.04C44.2797 29.6533 43.1464 30.0533 41.8397 30.24H33.9997V36.96C33.9997 37.3867 33.9464 37.7867 33.8397 38.16C33.7597 38.5333 33.5464 38.8267 33.1997 39.04C32.8797 39.2533 32.333 39.36 31.5597 39.36ZM48.5997 38.76C47.8264 39.2933 47.1864 39.4933 46.6797 39.36C46.1997 39.2267 45.7197 38.8 45.2397 38.08L38.5197 27.92L43.9197 27.2L49.2397 35.28C49.613 35.8133 49.8397 36.2667 49.9197 36.64C49.9997 37.0133 49.933 37.36 49.7197 37.68C49.5064 38 49.133 38.36 48.5997 38.76ZM33.9997 25.44H40.7597C41.2397 25.44 41.7064 25.36 42.1597 25.2C42.6397 25.0133 43.0664 24.7333 43.4397 24.36C43.813 23.96 44.1064 23.48 44.3197 22.92C44.5597 22.3333 44.6797 21.64 44.6797 20.84C44.6797 19.88 44.493 19.0667 44.1197 18.4C43.7464 17.7067 43.213 17.1867 42.5197 16.84C41.853 16.4667 41.0397 16.28 40.0797 16.28H33.9997V25.44ZM65.3663 39.6C63.4996 39.6 61.8329 39.2667 60.3663 38.6C58.9263 37.9067 57.7129 36.96 56.7263 35.76C55.7396 34.5333 54.9929 33.1467 54.4863 31.6C53.9796 30.0267 53.7263 28.36 53.7263 26.6V13.84C53.7263 13.3867 53.7663 12.9867 53.8463 12.64C53.9529 12.2667 54.1663 11.9733 54.4863 11.76C54.8329 11.52 55.3929 11.4 56.1663 11.4C56.9396 11.4 57.4863 11.52 57.8063 11.76C58.1529 11.9733 58.3663 12.2667 58.4463 12.64C58.5529 12.9867 58.6063 13.4 58.6063 13.88V26.6C58.6063 28.0667 58.8463 29.4267 59.3263 30.68C59.8329 31.9067 60.5929 32.8933 61.6063 33.64C62.6196 34.3867 63.9129 34.76 65.4863 34.76C66.8996 34.76 68.1129 34.4267 69.1263 33.76C70.1396 33.0933 70.9129 32.1467 71.4463 30.92C72.0063 29.6933 72.2863 28.24 72.2863 26.56V13.64C72.2863 13.2133 72.3263 12.84 72.4063 12.52C72.5129 12.2 72.7396 11.9333 73.0863 11.72C73.4329 11.5067 73.9796 11.4 74.7263 11.4C75.4996 11.4 76.0463 11.52 76.3663 11.76C76.7129 11.9733 76.9263 12.2667 77.0063 12.64C77.0863 13.0133 77.1263 13.4267 77.1263 13.88V26.68C77.1263 28.44 76.8729 30.1067 76.3663 31.68C75.8596 33.2267 75.0996 34.6 74.0863 35.8C73.0729 36.9733 71.8329 37.9067 70.3663 38.6C68.9263 39.2667 67.2596 39.6 65.3663 39.6Z" fill="#DC6C4B"/>
<path d="M11.76 38.84L11.311 40.2712H11.311L11.76 38.84ZM7.96 37L8.80501 35.7607L7.96 37ZM4.84 34.04L3.63039 34.927L3.64154 34.9422L3.65307 34.9572L4.84 34.04ZM2.76 30.04L1.33951 30.522L1.34221 30.5298L2.76 30.04ZM2.76 20.4L4.17499 20.8979L4.17779 20.8898L2.76 20.4ZM4.84 16.52L3.66052 15.5933H3.66052L4.84 16.52ZM7.92 13.68L8.74548 14.9325L8.75205 14.9281L7.92 13.68ZM11.76 11.88L12.1832 13.319L12.1922 13.3164L12.2011 13.3137L11.76 11.88ZM19.44 11.64L19.8415 10.1947L19.44 11.64ZM21.8 12.52L21.1062 13.8499L21.1293 13.8619L21.1528 13.8732L21.8 12.52ZM23.04 13.2L22.14 14.4L22.2147 14.456L22.2958 14.5024L23.04 13.2ZM24.12 13.96L25.0889 12.8149L25.0889 12.8149L24.12 13.96ZM24.68 15L23.1833 15.0998L23.189 15.1846L23.2042 15.2683L24.68 15ZM24.6 15.72L23.2976 14.9758L23.2551 15.0503L23.2213 15.1291L24.6 15.72ZM24.28 16.32L25.5281 17.152L25.5403 17.1337L25.552 17.115L24.28 16.32ZM23.6 17.04L24.395 18.312L24.4137 18.3003L24.432 18.2881L23.6 17.04ZM22.16 17L21.26 18.2L21.26 18.2L22.16 17ZM21.32 16.44L20.488 17.6881L20.5106 17.7032L20.5339 17.7175L21.32 16.44ZM20.36 15.92L19.6892 17.2616L19.6892 17.2616L20.36 15.92ZM18.52 15.24L18.061 16.668L18.0843 16.6755L18.1079 16.6823L18.52 15.24ZM11.88 15.64L12.4266 17.0369L12.4344 17.0338L12.4422 17.0307L11.88 15.64ZM8.64 17.72L9.68518 18.7959V18.7959L8.64 17.72ZM6.44 21L7.82462 21.5769V21.5769L6.44 21ZM6.44 29.72L5.05119 30.2869L5.05539 30.2969L6.44 29.72ZM8.64 33L7.59482 34.0759L7.60239 34.0833L7.61006 34.0905L8.64 33ZM18.44 35.48L18.0411 34.034L18.0279 34.0377L18.44 35.48ZM20.32 34.8L20.9908 36.1416L21.0048 36.1347L21.0186 36.1274L20.32 34.8ZM21.36 34.2L20.6417 32.8832L20.562 32.9266L20.4881 32.9794L21.36 34.2ZM22.12 33.72L21.288 32.4719L21.2533 32.495L21.22 32.52L22.12 33.72ZM23.6 33.72L22.7 34.92L22.782 34.9815L22.8715 35.0312L23.6 33.72ZM24.28 34.4L23.0319 35.2321L23.0453 35.2522L23.0594 35.2719L24.28 34.4ZM24.6 35.04L23.177 35.5143L23.2107 35.6155L23.2584 35.7108L24.6 35.04ZM24.68 35.76L23.2091 35.4658L23.1899 35.5622L23.1833 35.6602L24.68 35.76ZM24.12 36.8L25.0346 37.9889L25.0623 37.9676L25.0889 37.9451L24.12 36.8ZM23.04 37.56L23.6492 38.9307L23.7544 38.884L23.8511 38.8218L23.04 37.56ZM21.76 38.24L22.4783 39.5568L22.4882 39.5514L22.4981 39.5458L21.76 38.24ZM19.44 39.08L19.0762 37.6248L19.0573 37.6295L19.0385 37.6347L19.44 39.08ZM15.96 37.98C14.6707 37.98 13.4222 37.7894 12.209 37.4088L11.311 40.2712C12.8178 40.7439 14.3693 40.98 15.96 40.98V37.98ZM12.209 37.4088C10.9892 37.0261 9.85603 36.4773 8.80501 35.7607L7.115 38.2393C8.41063 39.1227 9.81081 39.8006 11.311 40.2712L12.209 37.4088ZM8.80501 35.7607C7.76753 35.0533 6.84154 34.177 6.02693 33.1228L3.65307 34.9572C4.6518 36.2496 5.80581 37.3467 7.115 38.2393L8.80501 35.7607ZM6.04961 33.153C5.26226 32.0793 4.63747 30.8809 4.17779 29.5502L1.34221 30.5298C1.89586 32.1324 2.65774 33.6007 3.63039 34.927L6.04961 33.153ZM4.18047 29.5581C3.73296 28.2391 3.5 26.7643 3.5 25.12H0.5C0.5 27.0491 0.773708 28.8543 1.33953 30.5219L4.18047 29.5581ZM3.5 25.12C3.5 23.5631 3.73081 22.1602 4.17497 20.8979L1.34503 19.9021C0.775856 21.5198 0.5 23.2636 0.5 25.12H3.5ZM4.17779 20.8898C4.63477 19.5669 5.25152 18.4241 6.01948 17.4467L3.66052 15.5933C2.66848 16.8559 1.89856 18.2997 1.34221 19.9102L4.17779 20.8898ZM6.01948 17.4467C6.80114 16.4519 7.70874 15.6157 8.74547 14.9324L7.09453 12.4276C5.78459 13.2909 4.63886 14.3481 3.66052 15.5933L6.01948 17.4467ZM8.75205 14.9281C9.82841 14.2105 10.9709 13.6756 12.1832 13.319L11.3368 10.441C9.8291 10.8844 8.41159 11.5495 7.08795 12.4319L8.75205 14.9281ZM12.2011 13.3137C13.446 12.9306 14.7107 12.74 16 12.74V9.74C14.4093 9.74 12.8474 9.97603 11.3189 10.4463L12.2011 13.3137ZM16 12.74C17.2403 12.74 18.2448 12.8648 19.0385 13.0853L19.8415 10.1947C18.7152 9.88186 17.4263 9.74 16 9.74V12.74ZM19.0385 13.0853C19.9374 13.335 20.6168 13.5946 21.1062 13.8499L22.4938 11.1901C21.7565 10.8054 20.8626 10.4784 19.8415 10.1947L19.0385 13.0853ZM21.1528 13.8732C21.7724 14.1695 22.06 14.34 22.14 14.4L23.94 12C23.5934 11.74 23.0542 11.4571 22.4472 11.1668L21.1528 13.8732ZM22.2958 14.5024C22.5853 14.6678 22.8705 14.8676 23.1511 15.1051L25.0889 12.8149C24.6762 12.4657 24.2414 12.1589 23.7842 11.8976L22.2958 14.5024ZM23.1511 15.1051C23.1773 15.1272 23.1914 15.1427 23.1977 15.1503C23.2037 15.1575 23.2029 15.1579 23.1993 15.1511C23.1955 15.1441 23.1911 15.134 23.1877 15.1221C23.1843 15.1103 23.1835 15.1021 23.1833 15.0998L26.1767 14.9002C26.1193 14.0393 25.7007 13.3326 25.0889 12.8149L23.1511 15.1051ZM23.2042 15.2683C23.2186 15.3477 23.1719 15.1958 23.2976 14.9758L25.9024 16.4642C26.2414 15.8708 26.248 15.2389 26.1558 14.7317L23.2042 15.2683ZM23.2213 15.1291C23.1777 15.2308 23.1098 15.3622 23.008 15.525L25.552 17.115C25.7169 16.8512 25.8623 16.5825 25.9787 16.3109L23.2213 15.1291ZM23.0319 15.4879C22.8938 15.6951 22.7982 15.7718 22.768 15.7919L24.432 18.2881C24.8818 17.9882 25.2395 17.5849 25.5281 17.152L23.0319 15.4879ZM22.805 15.768C22.8193 15.7591 22.8383 15.7503 22.8585 15.7447C22.8781 15.7393 22.8872 15.74 22.88 15.74V18.74C23.4102 18.74 23.9287 18.6034 24.395 18.312L22.805 15.768ZM22.88 15.74C22.8991 15.74 22.9333 15.7433 22.9743 15.757C23.0154 15.7707 23.0447 15.7885 23.06 15.8L21.26 18.2C21.733 18.5547 22.2888 18.74 22.88 18.74V15.74ZM23.06 15.8C22.7962 15.6021 22.4739 15.3888 22.1061 15.1625L20.5339 17.7175C20.8594 17.9178 21.0971 18.0779 21.26 18.2L23.06 15.8ZM22.1521 15.1919C21.9029 15.0258 21.5013 14.8136 21.0308 14.5784L19.6892 17.2616C20.1787 17.5064 20.4171 17.6409 20.488 17.6881L22.1521 15.1919ZM21.0308 14.5784C20.4402 14.283 19.7321 14.0263 18.9321 13.7977L18.1079 16.6823C18.8012 16.8804 19.3198 17.077 19.6892 17.2616L21.0308 14.5784ZM18.979 13.812C18.0414 13.5106 16.9704 13.38 15.8 13.38V16.38C16.7629 16.38 17.5052 16.4894 18.061 16.668L18.979 13.812ZM15.8 13.38C14.2485 13.38 12.7509 13.67 11.3178 14.2493L12.4422 17.0307C13.5158 16.5967 14.6315 16.38 15.8 16.38V13.38ZM11.3334 14.2431C9.92319 14.795 8.67314 15.5966 7.59482 16.6441L9.68518 18.7959C10.4735 18.0301 11.3835 17.445 12.4266 17.0369L11.3334 14.2431ZM7.59482 16.6441C6.5063 17.7015 5.66168 18.968 5.05539 20.4231L7.82462 21.5769C8.28499 20.472 8.90704 19.5518 9.68518 18.7959L7.59482 16.6441ZM5.05539 20.4231C4.43508 21.9118 4.14 23.5521 4.14 25.32H7.14C7.14 23.8879 7.37826 22.6482 7.82462 21.5769L5.05539 20.4231ZM4.14 25.32C4.14 27.1117 4.43411 28.7749 5.05123 30.2868L7.82877 29.1532C7.37922 28.0518 7.14 26.7816 7.14 25.32H4.14ZM5.05539 30.2969C5.66168 31.752 6.5063 33.0185 7.59482 34.0759L9.68518 31.9241C8.90704 31.1682 8.28499 30.248 7.82462 29.1431L5.05539 30.2969ZM7.61006 34.0905C8.70967 35.129 9.967 35.9265 11.3734 36.4769L12.4666 33.6831C11.4197 33.2735 10.4903 32.6843 9.66994 31.9095L7.61006 34.0905ZM11.3734 36.4769C12.7799 37.0272 14.2591 37.3 15.8 37.3V34.3C14.6209 34.3 13.5134 34.0928 12.4666 33.6831L11.3734 36.4769ZM15.8 37.3C16.9128 37.3 17.9378 37.1835 18.8521 36.9223L18.0279 34.0377C17.4489 34.2032 16.7138 34.3 15.8 34.3V37.3ZM18.8389 36.926C19.6649 36.6981 20.3925 36.4408 20.9908 36.1416L19.6492 33.4584C19.2875 33.6392 18.7618 33.8352 18.0411 34.034L18.8389 36.926ZM21.0186 36.1274C21.5228 35.862 21.9526 35.62 22.2319 35.4206L20.4881 32.9794C20.394 33.0466 20.1306 33.2046 19.6214 33.4726L21.0186 36.1274ZM22.0783 35.5168C22.4198 35.3305 22.7367 35.1325 23.02 34.92L21.22 32.52C21.0766 32.6275 20.8868 32.7495 20.6417 32.8832L22.0783 35.5168ZM22.9521 34.9681C22.9645 34.9598 22.9608 34.9643 22.9417 34.9704C22.9217 34.9767 22.8993 34.98 22.88 34.98V31.98C22.2929 31.98 21.7533 32.1617 21.288 32.4719L22.9521 34.9681ZM22.88 34.98C22.8609 34.98 22.8267 34.9767 22.7857 34.963C22.7446 34.9493 22.7153 34.9315 22.7 34.92L24.5 32.52C24.027 32.1653 23.4712 31.98 22.88 31.98V34.98ZM22.8715 35.0312C22.8513 35.02 22.8585 35.0198 22.8893 35.0507C22.9206 35.0819 22.9696 35.1385 23.0319 35.2321L25.5281 33.5679C25.2322 33.1241 24.844 32.6952 24.3285 32.4088L22.8715 35.0312ZM23.0594 35.2719C23.0974 35.325 23.1394 35.4017 23.177 35.5143L26.023 34.5657C25.9006 34.1983 25.7293 33.8483 25.5006 33.5281L23.0594 35.2719ZM23.2584 35.7108C23.2316 35.6572 23.2151 35.5993 23.2092 35.5457C23.2035 35.4943 23.2093 35.465 23.2091 35.4658L26.1509 36.0542C26.26 35.5085 26.218 34.922 25.9416 34.3692L23.2584 35.7108ZM23.1833 35.6602C23.1835 35.6579 23.1843 35.6497 23.1877 35.6379C23.1911 35.626 23.1955 35.6159 23.1993 35.6088C23.2029 35.6021 23.2037 35.6025 23.1977 35.6097C23.1914 35.6172 23.1773 35.6328 23.1511 35.6549L25.0889 37.9451C25.7007 37.4274 26.1193 36.7207 26.1767 35.8598L23.1833 35.6602ZM23.2054 35.6111C22.8927 35.8516 22.5672 36.0807 22.2289 36.2982L23.8511 38.8218C24.2594 38.5593 24.654 38.2817 25.0346 37.9889L23.2054 35.6111ZM22.4308 36.1893C22.1158 36.3293 21.63 36.5904 21.0219 36.9342L22.4981 39.5458C23.1166 39.1962 23.4842 39.004 23.6492 38.9307L22.4308 36.1893ZM21.0417 36.9232C20.6065 37.1606 19.9658 37.4024 19.0762 37.6248L19.8038 40.5352C20.8342 40.2776 21.7402 39.9594 22.4783 39.5568L21.0417 36.9232ZM19.0385 37.6347C18.247 37.8546 17.23 37.98 15.96 37.98V40.98C17.41 40.98 18.713 40.8387 19.8415 40.5253L19.0385 37.6347ZM29.9197 39.04L29.0876 40.2881L29.1103 40.3032L29.1335 40.3175L29.9197 39.04ZM29.2797 38.16L27.8088 38.4542L27.8207 38.5137L27.8374 38.5721L29.2797 38.16ZM29.3197 12.68L30.7534 13.1211L30.7578 13.1066L30.762 13.0921L29.3197 12.68ZM29.9597 11.8L30.7917 13.0481L30.8027 13.0408L30.8135 13.0333L29.9597 11.8ZM43.6397 12.04L43.1243 13.4487L43.1447 13.4562L43.1653 13.463L43.6397 12.04ZM46.6397 13.8L45.6307 14.9099L45.64 14.9184L45.6495 14.9267L46.6397 13.8ZM48.7197 16.76L47.3378 17.3435L47.3457 17.3622L47.3541 17.3807L48.7197 16.76ZM49.0397 24L50.4701 24.4517L50.4734 24.4411L49.0397 24ZM47.5997 26.84L46.3866 25.9577L46.3817 25.9645L47.5997 26.84ZM45.2397 29.04L46.0473 30.304L45.2397 29.04ZM41.8397 30.24V31.74H41.9463L42.0518 31.7249L41.8397 30.24ZM33.9997 30.24V28.74H32.4997V30.24H33.9997ZM33.8397 38.16L32.3974 37.7479L32.3835 37.7964L32.373 37.8457L33.8397 38.16ZM33.1997 39.04L32.4135 37.7625L32.3903 37.7768L32.3676 37.7919L33.1997 39.04ZM48.5997 38.76L49.4513 39.9948L49.4758 39.9779L49.4997 39.96L48.5997 38.76ZM46.6797 39.36L46.2782 40.8053L46.2881 40.808L46.2979 40.8106L46.6797 39.36ZM45.2397 38.08L43.9886 38.9075L43.9916 38.9121L45.2397 38.08ZM38.5197 27.92L38.3214 26.4332L35.9472 26.7497L37.2686 28.7475L38.5197 27.92ZM43.9197 27.2L45.1725 26.3751L44.6547 25.5887L43.7214 25.7132L43.9197 27.2ZM49.2397 35.28L47.9869 36.1049L47.9986 36.1227L48.0108 36.1402L49.2397 35.28ZM49.7197 37.68L50.9678 38.5121L49.7197 37.68ZM33.9997 25.44H32.4997V26.94H33.9997V25.44ZM42.1597 25.2L42.6589 26.6145L42.6813 26.6066L42.7034 26.598L42.1597 25.2ZM43.4397 24.36L44.5003 25.4207L44.5186 25.4024L44.5363 25.3835L43.4397 24.36ZM44.3197 22.92L42.9314 22.3521L42.9245 22.3689L42.918 22.386L44.3197 22.92ZM44.1197 18.4L42.799 19.1111L42.8049 19.1221L42.8109 19.1329L44.1197 18.4ZM42.5197 16.84L41.7868 18.1488L41.8174 18.1659L41.8489 18.1816L42.5197 16.84ZM33.9997 16.28V14.78H32.4997V16.28H33.9997ZM31.5597 37.86C31.2525 37.86 31.0299 37.8376 30.877 37.8078C30.7196 37.7771 30.6809 37.7472 30.7058 37.7625L29.1335 40.3175C29.842 40.7535 30.7334 40.86 31.5597 40.86V37.86ZM30.7517 37.7919C30.74 37.7841 30.7344 37.779 30.7328 37.7775C30.7313 37.7761 30.7317 37.7763 30.7328 37.7777C30.7338 37.7792 30.7335 37.7791 30.732 37.7759C30.7304 37.7726 30.7265 37.7639 30.722 37.7479L27.8374 38.5721C28.0408 39.2841 28.4684 39.8752 29.0876 40.2881L30.7517 37.7919ZM30.7506 37.8658C30.6908 37.567 30.6597 37.2524 30.6597 36.92H27.6597C27.6597 37.4409 27.7086 37.953 27.8088 38.4542L30.7506 37.8658ZM30.6597 36.92V13.84H27.6597V36.92H30.6597ZM30.6597 13.84C30.6597 13.5372 30.6976 13.3023 30.7534 13.1211L27.886 12.2389C27.7284 12.751 27.6597 13.2894 27.6597 13.84H30.6597ZM30.762 13.0921C30.7665 13.0761 30.7704 13.0674 30.772 13.0641C30.7735 13.0609 30.7738 13.0608 30.7728 13.0623C30.7717 13.0637 30.7713 13.0639 30.7728 13.0625C30.7744 13.061 30.78 13.0559 30.7917 13.0481L29.1276 10.5519C28.5084 10.9648 28.0808 11.5559 27.8774 12.2679L30.762 13.0921ZM30.8135 13.0333C30.783 13.0544 30.8097 13.0262 30.9513 12.9951C31.0907 12.9645 31.301 12.94 31.5997 12.94V9.94C30.7545 9.94 29.8318 10.0641 29.1059 10.5667L30.8135 13.0333ZM31.5997 12.94H40.1597V9.94H31.5997V12.94ZM40.1597 12.94C41.2201 12.94 42.2048 13.1123 43.1243 13.4487L44.1551 10.6313C42.8879 10.1677 41.5526 9.94 40.1597 9.94V12.94ZM43.1653 13.463C44.0858 13.7698 44.904 14.2493 45.6307 14.9099L47.6487 12.6901C46.6154 11.7507 45.4336 11.0568 44.114 10.617L43.1653 13.463ZM45.6495 14.9267C46.3415 15.5348 46.9092 16.3282 47.3378 17.3435L50.1016 16.1765C49.5169 14.7918 48.6979 13.6118 47.6299 12.6733L45.6495 14.9267ZM47.3541 17.3807C47.7815 18.321 48.0197 19.4746 48.0197 20.88H51.0197C51.0197 19.1388 50.7245 17.5457 50.0852 16.1393L47.3541 17.3807ZM48.0197 20.88C48.0197 21.7637 47.8841 22.6551 47.606 23.5589L50.4734 24.4411C50.8353 23.2649 51.0197 22.0763 51.0197 20.88H48.0197ZM47.6093 23.5483C47.3392 24.4036 46.9337 25.2054 46.3866 25.9577L48.8128 27.7223C49.5457 26.7146 50.1002 25.623 50.4701 24.4517L47.6093 23.5483ZM46.3817 25.9645C45.8883 26.651 45.2454 27.2563 44.4321 27.776L46.0473 30.304C47.1539 29.597 48.0844 28.7357 48.8177 27.7155L46.3817 25.9645ZM44.4321 27.776C43.679 28.2571 42.7557 28.5939 41.6276 28.7551L42.0518 31.7249C43.537 31.5128 44.8804 31.0496 46.0473 30.304L44.4321 27.776ZM41.8397 28.74H33.9997V31.74H41.8397V28.74ZM32.4997 30.24V36.96H35.4997V30.24H32.4997ZM32.4997 36.96C32.4997 37.2609 32.4622 37.5211 32.3974 37.7479L35.282 38.5721C35.4305 38.0522 35.4997 37.5124 35.4997 36.96H32.4997ZM32.373 37.8457C32.3733 37.8443 32.3755 37.8351 32.3817 37.8209C32.3881 37.8065 32.3966 37.7915 32.4066 37.7777C32.4165 37.7641 32.4248 37.7559 32.4283 37.7527C32.4316 37.7498 32.4279 37.7537 32.4135 37.7625L33.9858 40.3175C34.6556 39.9053 35.1344 39.2768 35.3064 38.4743L32.373 37.8457ZM32.3676 37.7919C32.4291 37.7509 32.4212 37.7768 32.2624 37.8078C32.1122 37.8371 31.8841 37.86 31.5597 37.86V40.86C32.3825 40.86 33.3189 40.7633 34.0317 40.2881L32.3676 37.7919ZM47.7481 37.5252C47.4398 37.7378 47.2236 37.8372 47.0923 37.8783C46.967 37.9174 46.9754 37.8868 47.0614 37.9094L46.2979 40.8106C47.4638 41.1174 48.5854 40.592 49.4513 39.9948L47.7481 37.5252ZM47.0812 37.9147C47.1159 37.9244 47.073 37.9226 46.9562 37.8189C46.8387 37.7144 46.6795 37.5356 46.4878 37.2479L43.9916 38.9121C44.5374 39.7308 45.2743 40.5264 46.2782 40.8053L47.0812 37.9147ZM46.4908 37.2525L39.7708 27.0925L37.2686 28.7475L43.9886 38.9075L46.4908 37.2525ZM38.7179 29.4068L44.1179 28.6868L43.7214 25.7132L38.3214 26.4332L38.7179 29.4068ZM42.6669 28.0249L47.9869 36.1049L50.4925 34.4551L45.1725 26.3751L42.6669 28.0249ZM48.0108 36.1402C48.3389 36.6089 48.4346 36.8685 48.453 36.9543L51.3864 36.3257C51.2448 35.6649 50.8871 35.0178 50.4685 34.4198L48.0108 36.1402ZM48.453 36.9543C48.454 36.959 48.4527 36.9547 48.4524 36.9428C48.4522 36.9305 48.4533 36.9146 48.4567 36.8967C48.4601 36.8789 48.465 36.8643 48.4692 36.8541C48.4734 36.8443 48.4754 36.8422 48.4716 36.8479L50.9678 38.5121C51.4039 37.8579 51.5519 37.0982 51.3864 36.3257L48.453 36.9543ZM48.4716 36.8479C48.3974 36.9593 48.1815 37.1986 47.6997 37.56L49.4997 39.96C50.0845 39.5214 50.6154 39.0407 50.9678 38.5121L48.4716 36.8479ZM33.9997 26.94H40.7597V23.94H33.9997V26.94ZM40.7597 26.94C41.41 26.94 42.0455 26.831 42.6589 26.6145L41.6605 23.7855C41.3672 23.889 41.0694 23.94 40.7597 23.94V26.94ZM42.7034 26.598C43.3822 26.334 43.9837 25.9373 44.5003 25.4207L42.379 23.2993C42.149 23.5294 41.8972 23.6926 41.616 23.802L42.7034 26.598ZM44.5363 25.3835C45.0541 24.8286 45.4456 24.178 45.7214 23.454L42.918 22.386C42.7671 22.782 42.5719 23.0914 42.3431 23.3365L44.5363 25.3835ZM45.708 23.4879C46.0383 22.6805 46.1797 21.7857 46.1797 20.84H43.1797C43.1797 21.4943 43.0811 21.9861 42.9314 22.3521L45.708 23.4879ZM46.1797 20.84C46.1797 19.6881 45.9554 18.6081 45.4284 17.6671L42.8109 19.1329C43.0306 19.5252 43.1797 20.0719 43.1797 20.84H46.1797ZM45.4404 17.6888C44.923 16.728 44.1649 15.9856 43.1905 15.4984L41.8489 18.1816C42.2611 18.3878 42.5697 18.6853 42.799 19.1111L45.4404 17.6888ZM43.2526 15.5312C42.3116 15.0043 41.2316 14.78 40.0797 14.78V17.78C40.8478 17.78 41.3945 17.9291 41.7868 18.1488L43.2526 15.5312ZM40.0797 14.78H33.9997V17.78H40.0797V14.78ZM32.4997 16.28V25.44H35.4997V16.28H32.4997ZM60.3662 38.6L59.7155 39.9515L59.7305 39.9587L59.7455 39.9655L60.3662 38.6ZM56.7262 35.76L55.5574 36.7001L55.5625 36.7064L55.5676 36.7127L56.7262 35.76ZM54.4863 31.6L53.0584 32.0598L53.0608 32.067L54.4863 31.6ZM53.8462 12.64L52.404 12.2279L52.3934 12.2651L52.3847 12.3027L53.8462 12.64ZM54.4863 11.76L55.3183 13.0081L55.3293 13.0008L55.3401 12.9933L54.4863 11.76ZM57.8063 11.76L56.9062 12.96L56.9614 13.0014L57.0201 13.0375L57.8063 11.76ZM58.4463 12.64L56.9795 12.9543L56.9933 13.0184L57.0126 13.0811L58.4463 12.64ZM59.3263 30.68L57.9255 31.2165L57.9324 31.2346L57.9399 31.2526L59.3263 30.68ZM61.6063 33.64L62.496 32.4324L61.6063 33.64ZM69.1263 33.76L68.3018 32.5069L69.1263 33.76ZM71.4463 30.92L70.0817 30.2971L70.0761 30.3094L70.0706 30.3219L71.4463 30.92ZM72.4062 12.52L70.9832 12.0457L70.965 12.1003L70.951 12.1562L72.4062 12.52ZM73.0863 11.72L73.8724 12.9975V12.9975L73.0863 11.72ZM76.3662 11.76L75.4662 12.96L75.5214 13.0014L75.5801 13.0375L76.3662 11.76ZM77.0062 12.64L78.473 12.3257V12.3257L77.0062 12.64ZM76.3662 31.68L77.7917 32.147L77.794 32.1398L76.3662 31.68ZM74.0863 35.8L75.2215 36.7804L75.2269 36.7741L75.2323 36.7678L74.0863 35.8ZM70.3662 38.6L70.9965 39.9612L71.0073 39.9561L70.3662 38.6ZM65.3662 38.1C63.6799 38.1 62.2301 37.7995 60.987 37.2345L59.7455 39.9655C61.4357 40.7338 63.3192 41.1 65.3662 41.1V38.1ZM61.017 37.2485C59.7674 36.6469 58.7292 35.8342 57.8849 34.8073L55.5676 36.7127C56.6967 38.0858 58.0851 39.1665 59.7155 39.9515L61.017 37.2485ZM57.8951 34.8199C57.0256 33.7389 56.364 32.5137 55.9117 31.133L53.0608 32.067C53.6218 33.7796 54.4535 35.3277 55.5574 36.7001L57.8951 34.8199ZM55.914 31.1402C55.4582 29.7248 55.2262 28.214 55.2262 26.6H52.2262C52.2262 28.506 52.5009 30.3285 53.0585 32.0598L55.914 31.1402ZM55.2262 26.6V13.84H52.2262V26.6H55.2262ZM55.2262 13.84C55.2262 13.4709 55.2592 13.188 55.3078 12.9773L52.3847 12.3027C52.2733 12.7853 52.2262 13.3024 52.2262 13.84H55.2262ZM55.2885 13.0521C55.2931 13.0361 55.2969 13.0274 55.2985 13.0241C55.3 13.0209 55.3004 13.0208 55.2994 13.0223C55.2983 13.0237 55.2979 13.0239 55.2994 13.0225C55.301 13.021 55.3066 13.0159 55.3183 13.0081L53.6542 10.5119C53.0349 10.9248 52.6074 11.5159 52.404 12.2279L55.2885 13.0521ZM55.3401 12.9933C55.3037 13.0185 55.3289 12.9892 55.4805 12.9567C55.6285 12.925 55.8511 12.9 56.1662 12.9V9.9C55.3078 9.9 54.3645 10.0199 53.6324 10.5267L55.3401 12.9933ZM56.1662 12.9C56.4825 12.9 56.6984 12.9252 56.8346 12.9551C56.9766 12.9863 56.972 13.0093 56.9062 12.96L58.7062 10.56C57.9769 10.013 57.0065 9.9 56.1662 9.9V12.9ZM57.0201 13.0375C57.0345 13.0463 57.0381 13.0502 57.0349 13.0473C57.0314 13.0441 57.0231 13.0359 57.0131 13.0223C57.0031 13.0085 56.9946 12.9935 56.9883 12.9791C56.982 12.9649 56.9798 12.9557 56.9795 12.9543L59.913 12.3257C59.741 11.5232 59.2622 10.8947 58.5924 10.4825L57.0201 13.0375ZM57.0126 13.0811C57.0637 13.2472 57.1063 13.5043 57.1063 13.88H60.1063C60.1063 13.2957 60.0421 12.7261 59.8799 12.1989L57.0126 13.0811ZM57.1063 13.88V26.6H60.1063V13.88H57.1063ZM57.1063 26.6C57.1063 28.233 57.374 29.7766 57.9255 31.2165L60.727 30.1435C60.3185 29.0767 60.1063 27.9003 60.1063 26.6H57.1063ZM57.9399 31.2526C58.5451 32.7179 59.4706 33.9296 60.7165 34.8476L62.496 32.4324C61.7153 31.8571 61.1207 31.0954 60.7126 30.1074L57.9399 31.2526ZM60.7165 34.8476C62.046 35.8272 63.6738 36.26 65.4863 36.26V33.26C64.1521 33.26 63.1932 32.9461 62.496 32.4324L60.7165 34.8476ZM65.4863 36.26C67.1431 36.26 68.6542 35.8661 69.9507 35.0131L68.3018 32.5069C67.5716 32.9873 66.6561 33.26 65.4863 33.26V36.26ZM69.9507 35.0131C71.2322 34.17 72.1847 32.9835 72.8219 31.5181L70.0706 30.3219C69.6411 31.3098 69.047 32.0167 68.3018 32.5069L69.9507 35.0131ZM72.8108 31.5429C73.4792 30.0788 73.7862 28.4036 73.7862 26.56H70.7862C70.7862 28.0764 70.5333 29.3078 70.0817 30.2971L72.8108 31.5429ZM73.7862 26.56V13.64H70.7862V26.56H73.7862ZM73.7862 13.64C73.7862 13.3022 73.8184 13.056 73.8615 12.8838L70.951 12.1562C70.8341 12.624 70.7862 13.1245 70.7862 13.64H73.7862ZM73.8293 12.9943C73.8251 13.0069 73.8195 13.0195 73.8129 13.031C73.8065 13.0424 73.8011 13.0492 73.7992 13.0515C73.7953 13.056 73.8119 13.0347 73.8724 12.9975L72.3001 10.4425C71.718 10.8007 71.2231 11.326 70.9832 12.0457L73.8293 12.9943ZM73.8724 12.9975C73.8474 13.0128 73.8862 12.9829 74.0435 12.9522C74.1965 12.9224 74.419 12.9 74.7262 12.9V9.9C73.8999 9.9 73.0086 10.0065 72.3001 10.4425L73.8724 12.9975ZM74.7262 12.9C75.0425 12.9 75.2584 12.9252 75.3946 12.9551C75.5366 12.9863 75.532 13.0093 75.4662 12.96L77.2663 10.56C76.5369 10.013 75.5665 9.9 74.7262 9.9V12.9ZM75.5801 13.0375C75.5945 13.0463 75.5981 13.0502 75.5949 13.0473C75.5914 13.0441 75.5831 13.0359 75.5732 13.0223C75.5631 13.0085 75.5546 12.9935 75.5483 12.9791C75.542 12.9649 75.5398 12.9557 75.5396 12.9543L78.473 12.3257C78.301 11.5232 77.8222 10.8947 77.1524 10.4825L75.5801 13.0375ZM75.5396 12.9543C75.5938 13.2072 75.6263 13.5133 75.6263 13.88H78.6263C78.6263 13.3401 78.5788 12.8194 78.473 12.3257L75.5396 12.9543ZM75.6263 13.88V26.68H78.6263V13.88H75.6263ZM75.6263 26.68C75.6263 28.294 75.3943 29.8048 74.9385 31.2202L77.794 32.1398C78.3516 30.4085 78.6263 28.586 78.6263 26.68H75.6263ZM74.9408 31.213C74.492 32.5831 73.8245 33.785 72.9402 34.8322L75.2323 36.7678C76.3746 35.415 77.2272 33.8702 77.7917 32.147L74.9408 31.213ZM72.951 34.8196C72.0807 35.8273 71.0117 36.6357 69.7252 37.2439L71.0073 39.9561C72.6541 39.1776 74.0651 38.1194 75.2215 36.7804L72.951 34.8196ZM69.7361 37.2388C68.528 37.7981 67.0834 38.1 65.3662 38.1V41.1C67.4358 41.1 69.3245 40.7353 70.9964 39.9612L69.7361 37.2388Z" fill="white"/>
<path d="M118.642 31.324C117.778 31.324 116.968 31.162 116.212 30.838C115.468 30.502 114.808 30.046 114.232 29.47C113.656 28.882 113.206 28.21 112.882 27.454C112.558 26.686 112.396 25.864 112.396 24.988C112.396 24.088 112.552 23.248 112.864 22.468C113.188 21.676 113.626 20.986 114.178 20.398C114.742 19.798 115.39 19.33 116.122 18.994C116.854 18.658 117.64 18.49 118.48 18.49C119.356 18.49 120.166 18.658 120.91 18.994C121.666 19.318 122.326 19.774 122.89 20.362C123.454 20.95 123.898 21.634 124.222 22.414C124.546 23.182 124.708 24.016 124.708 24.916C124.708 25.792 124.552 26.62 124.24 27.4C123.928 28.168 123.49 28.852 122.926 29.452C122.362 30.04 121.714 30.502 120.982 30.838C120.262 31.162 119.482 31.324 118.642 31.324ZM118.552 29.128C119.104 29.128 119.62 29.02 120.1 28.804C120.58 28.588 121 28.288 121.36 27.904C121.732 27.52 122.02 27.076 122.224 26.572C122.428 26.056 122.53 25.504 122.53 24.916C122.53 24.328 122.422 23.782 122.206 23.278C122.002 22.762 121.714 22.312 121.342 21.928C120.982 21.532 120.562 21.226 120.082 21.01C119.614 20.794 119.104 20.686 118.552 20.686C118.012 20.686 117.502 20.794 117.022 21.01C116.542 21.226 116.116 21.532 115.744 21.928C115.384 22.312 115.102 22.762 114.898 23.278C114.694 23.794 114.592 24.34 114.592 24.916C114.592 25.492 114.694 26.038 114.898 26.554C115.114 27.07 115.402 27.52 115.762 27.904C116.122 28.288 116.536 28.588 117.004 28.804C117.484 29.02 118 29.128 118.552 29.128ZM134.411 31.216C133.835 31.216 133.271 31.12 132.719 30.928C132.179 30.724 131.687 30.43 131.243 30.046C130.811 29.662 130.463 29.194 130.199 28.642C129.947 28.078 129.821 27.442 129.821 26.734C129.821 26.026 129.947 25.396 130.199 24.844C130.463 24.292 130.811 23.824 131.243 23.44C131.675 23.056 132.161 22.762 132.701 22.558C133.241 22.354 133.799 22.252 134.375 22.252C134.795 22.252 135.191 22.312 135.563 22.432C135.947 22.552 136.277 22.696 136.553 22.864C136.829 23.032 137.027 23.2 137.147 23.368C137.303 23.512 137.435 23.65 137.543 23.782C137.651 23.914 137.687 24.076 137.651 24.268C137.615 24.388 137.561 24.502 137.489 24.61C137.417 24.706 137.327 24.808 137.219 24.916C136.931 25.24 136.649 25.36 136.373 25.276C136.217 25.192 136.061 25.102 135.905 25.006C135.749 24.91 135.587 24.82 135.419 24.736C135.263 24.64 135.101 24.562 134.933 24.502C134.765 24.442 134.579 24.412 134.375 24.412C133.919 24.412 133.511 24.514 133.151 24.718C132.803 24.91 132.527 25.18 132.323 25.528C132.131 25.876 132.035 26.278 132.035 26.734C132.035 27.19 132.131 27.598 132.323 27.958C132.527 28.306 132.803 28.582 133.151 28.786C133.499 28.978 133.895 29.074 134.339 29.074C134.555 29.074 134.759 29.05 134.951 29.002C135.155 28.942 135.335 28.87 135.491 28.786C135.647 28.69 135.773 28.594 135.869 28.498C136.001 28.414 136.121 28.336 136.229 28.264C136.337 28.192 136.451 28.156 136.571 28.156C136.715 28.156 136.853 28.21 136.985 28.318C137.129 28.414 137.285 28.57 137.453 28.786C137.609 28.966 137.693 29.14 137.705 29.308C137.729 29.476 137.693 29.638 137.597 29.794C137.513 29.95 137.369 30.094 137.165 30.226C137.021 30.37 136.805 30.52 136.517 30.676C136.241 30.82 135.917 30.946 135.545 31.054C135.185 31.162 134.807 31.216 134.411 31.216ZM146.63 31.144C146.282 31.144 146.024 31.078 145.856 30.946C145.688 30.814 145.604 30.634 145.604 30.406L145.73 29.812C145.634 29.968 145.472 30.154 145.244 30.37C145.016 30.574 144.716 30.76 144.344 30.928C143.972 31.084 143.522 31.162 142.994 31.162C142.43 31.162 141.896 31.048 141.392 30.82C140.9 30.58 140.462 30.256 140.078 29.848C139.706 29.428 139.406 28.954 139.178 28.426C138.962 27.886 138.854 27.31 138.854 26.698C138.854 26.11 138.962 25.558 139.178 25.042C139.406 24.514 139.712 24.046 140.096 23.638C140.48 23.23 140.918 22.912 141.41 22.684C141.914 22.444 142.442 22.324 142.994 22.324C143.486 22.324 143.9 22.39 144.236 22.522C144.584 22.654 144.878 22.822 145.118 23.026C145.358 23.218 145.556 23.422 145.712 23.638L145.604 23.116C145.604 22.852 145.688 22.654 145.856 22.522C146.024 22.378 146.288 22.306 146.648 22.306C146.984 22.306 147.224 22.36 147.368 22.468C147.512 22.564 147.602 22.702 147.638 22.882C147.674 23.05 147.692 23.242 147.692 23.458V30.046C147.692 30.25 147.674 30.436 147.638 30.604C147.602 30.772 147.506 30.904 147.35 31C147.206 31.096 146.966 31.144 146.63 31.144ZM143.318 29.056C143.726 29.056 144.092 28.954 144.416 28.75C144.74 28.546 144.998 28.27 145.19 27.922C145.394 27.562 145.496 27.166 145.496 26.734C145.496 26.266 145.394 25.858 145.19 25.51C144.986 25.162 144.716 24.892 144.38 24.7C144.056 24.496 143.69 24.394 143.282 24.394C142.838 24.394 142.442 24.502 142.094 24.718C141.746 24.922 141.47 25.204 141.266 25.564C141.074 25.912 140.978 26.308 140.978 26.752C140.978 27.184 141.08 27.574 141.284 27.922C141.488 28.27 141.764 28.546 142.112 28.75C142.472 28.954 142.874 29.056 143.318 29.056ZM150.561 31.18C150.237 31.18 149.997 31.126 149.841 31.018C149.697 30.922 149.607 30.79 149.571 30.622C149.535 30.454 149.517 30.268 149.517 30.064V23.386C149.517 23.17 149.535 22.984 149.571 22.828C149.607 22.66 149.697 22.534 149.841 22.45C149.997 22.354 150.243 22.306 150.579 22.306C150.903 22.306 151.137 22.348 151.281 22.432C151.437 22.516 151.533 22.624 151.569 22.756C151.617 22.876 151.641 22.996 151.641 23.116L151.497 23.44C151.557 23.344 151.641 23.23 151.749 23.098C151.857 22.954 152.001 22.816 152.181 22.684C152.361 22.54 152.577 22.426 152.829 22.342C153.081 22.246 153.381 22.198 153.729 22.198C153.873 22.198 154.023 22.216 154.179 22.252C154.347 22.276 154.509 22.318 154.665 22.378C154.833 22.426 154.983 22.492 155.115 22.576C155.247 22.66 155.349 22.762 155.421 22.882C155.493 22.99 155.529 23.116 155.529 23.26C155.529 23.644 155.433 23.968 155.241 24.232C155.049 24.496 154.821 24.628 154.557 24.628C154.377 24.628 154.245 24.61 154.161 24.574C154.077 24.538 154.005 24.496 153.945 24.448C153.897 24.4 153.819 24.358 153.711 24.322C153.615 24.286 153.459 24.268 153.243 24.268C153.063 24.268 152.877 24.298 152.685 24.358C152.505 24.418 152.337 24.508 152.181 24.628C152.025 24.748 151.899 24.904 151.803 25.096C151.707 25.276 151.659 25.486 151.659 25.726V30.1C151.659 30.304 151.641 30.49 151.605 30.658C151.569 30.814 151.473 30.94 151.317 31.036C151.161 31.132 150.909 31.18 150.561 31.18ZM160.24 31.162C159.688 31.162 159.166 31.048 158.674 30.82C158.182 30.592 157.75 30.28 157.378 29.884C157.006 29.476 156.712 29.002 156.496 28.462C156.28 27.91 156.172 27.322 156.172 26.698C156.172 26.098 156.28 25.534 156.496 25.006C156.712 24.466 157.006 23.998 157.378 23.602C157.762 23.194 158.2 22.876 158.692 22.648C159.184 22.42 159.7 22.306 160.24 22.306C160.816 22.306 161.332 22.42 161.788 22.648C162.244 22.876 162.628 23.194 162.94 23.602C163.264 23.998 163.51 24.466 163.678 25.006C163.846 25.534 163.936 26.104 163.948 26.716C163.948 27.328 163.864 27.904 163.696 28.444C163.54 28.972 163.3 29.44 162.976 29.848C162.664 30.256 162.274 30.58 161.806 30.82C161.35 31.048 160.828 31.162 160.24 31.162ZM160.528 29.056C160.948 29.056 161.32 28.96 161.644 28.768C161.98 28.564 162.244 28.288 162.436 27.94C162.64 27.592 162.742 27.196 162.742 26.752C162.742 26.296 162.64 25.894 162.436 25.546C162.244 25.198 161.98 24.922 161.644 24.718C161.32 24.514 160.948 24.412 160.528 24.412C160.108 24.412 159.73 24.514 159.394 24.718C159.058 24.91 158.788 25.186 158.584 25.546C158.392 25.894 158.296 26.296 158.296 26.752C158.296 27.196 158.392 27.592 158.584 27.94C158.788 28.288 159.058 28.564 159.394 28.768C159.742 28.96 160.12 29.056 160.528 29.056ZM163.858 31.162C163.522 31.162 163.276 31.108 163.12 31C162.964 30.88 162.862 30.694 162.814 30.442V19.354C162.814 19.15 162.826 18.97 162.85 18.814C162.886 18.646 162.976 18.514 163.12 18.418C163.276 18.31 163.516 18.256 163.84 18.256C164.188 18.256 164.434 18.304 164.578 18.4C164.722 18.496 164.812 18.628 164.848 18.796C164.896 18.952 164.92 19.132 164.92 19.336V30.064C164.92 30.268 164.902 30.454 164.866 30.622C164.83 30.79 164.734 30.922 164.578 31.018C164.434 31.114 164.194 31.162 163.858 31.162ZM173.982 31.144C173.634 31.144 173.376 31.078 173.208 30.946C173.04 30.814 172.956 30.634 172.956 30.406L173.082 29.812C172.986 29.968 172.824 30.154 172.596 30.37C172.368 30.574 172.068 30.76 171.696 30.928C171.324 31.084 170.874 31.162 170.346 31.162C169.782 31.162 169.248 31.048 168.744 30.82C168.252 30.58 167.814 30.256 167.43 29.848C167.058 29.428 166.758 28.954 166.53 28.426C166.314 27.886 166.206 27.31 166.206 26.698C166.206 26.11 166.314 25.558 166.53 25.042C166.758 24.514 167.064 24.046 167.448 23.638C167.832 23.23 168.27 22.912 168.762 22.684C169.266 22.444 169.794 22.324 170.346 22.324C170.838 22.324 171.252 22.39 171.588 22.522C171.936 22.654 172.23 22.822 172.47 23.026C172.71 23.218 172.908 23.422 173.064 23.638L172.956 23.116C172.956 22.852 173.04 22.654 173.208 22.522C173.376 22.378 173.64 22.306 174 22.306C174.336 22.306 174.576 22.36 174.72 22.468C174.864 22.564 174.954 22.702 174.99 22.882C175.026 23.05 175.044 23.242 175.044 23.458V30.046C175.044 30.25 175.026 30.436 174.99 30.604C174.954 30.772 174.858 30.904 174.702 31C174.558 31.096 174.318 31.144 173.982 31.144ZM170.67 29.056C171.078 29.056 171.444 28.954 171.768 28.75C172.092 28.546 172.35 28.27 172.542 27.922C172.746 27.562 172.848 27.166 172.848 26.734C172.848 26.266 172.746 25.858 172.542 25.51C172.338 25.162 172.068 24.892 171.732 24.7C171.408 24.496 171.042 24.394 170.634 24.394C170.19 24.394 169.794 24.502 169.446 24.718C169.098 24.922 168.822 25.204 168.618 25.564C168.426 25.912 168.33 26.308 168.33 26.752C168.33 27.184 168.432 27.574 168.636 27.922C168.84 28.27 169.116 28.546 169.464 28.75C169.824 28.954 170.226 29.056 170.67 29.056ZM170.148 21.388C169.956 21.424 169.794 21.388 169.662 21.28C169.542 21.172 169.44 20.98 169.356 20.704C169.248 20.368 169.224 20.116 169.284 19.948C169.356 19.768 169.542 19.63 169.842 19.534L172.866 18.58C173.058 18.544 173.214 18.586 173.334 18.706C173.466 18.814 173.568 19.006 173.64 19.282C173.76 19.606 173.778 19.858 173.694 20.038C173.622 20.206 173.442 20.338 173.154 20.434L170.148 21.388ZM181.404 31.054C180.816 31.054 180.288 30.946 179.82 30.73C179.364 30.502 178.974 30.19 178.65 29.794C178.338 29.386 178.098 28.918 177.93 28.39C177.774 27.862 177.696 27.292 177.696 26.68C177.708 26.068 177.798 25.498 177.966 24.97C178.134 24.43 178.374 23.962 178.686 23.566C179.01 23.17 179.4 22.858 179.856 22.63C180.312 22.402 180.828 22.288 181.404 22.288C181.956 22.288 182.472 22.402 182.952 22.63C183.444 22.858 183.876 23.176 184.248 23.584C184.632 23.992 184.932 24.466 185.148 25.006C185.364 25.534 185.472 26.104 185.472 26.716C185.472 27.34 185.364 27.916 185.148 28.444C184.932 28.972 184.638 29.434 184.266 29.83C183.894 30.214 183.462 30.514 182.97 30.73C182.478 30.946 181.956 31.054 181.404 31.054ZM177.804 34.798C177.48 34.798 177.24 34.75 177.084 34.654C176.928 34.558 176.832 34.432 176.796 34.276C176.76 34.12 176.742 33.94 176.742 33.736V23.386C176.742 23.182 176.76 23.002 176.796 22.846C176.832 22.69 176.922 22.564 177.066 22.468C177.222 22.36 177.462 22.306 177.786 22.306C178.098 22.306 178.344 22.354 178.524 22.45C178.704 22.546 178.824 22.708 178.884 22.936V33.718C178.896 33.922 178.878 34.102 178.83 34.258C178.794 34.426 178.698 34.558 178.542 34.654C178.386 34.75 178.14 34.798 177.804 34.798ZM181.116 29.038C181.536 29.038 181.914 28.942 182.25 28.75C182.586 28.546 182.85 28.27 183.042 27.922C183.246 27.562 183.348 27.16 183.348 26.716C183.348 26.26 183.246 25.858 183.042 25.51C182.85 25.162 182.586 24.892 182.25 24.7C181.914 24.496 181.536 24.394 181.116 24.394C180.708 24.394 180.336 24.496 180 24.7C179.664 24.904 179.394 25.18 179.19 25.528C178.998 25.864 178.902 26.26 178.902 26.716C178.902 27.16 178.998 27.562 179.19 27.922C179.394 28.27 179.664 28.546 180 28.75C180.336 28.942 180.708 29.038 181.116 29.038ZM188.145 31.18C187.821 31.18 187.581 31.126 187.425 31.018C187.269 30.922 187.173 30.796 187.137 30.64C187.101 30.472 187.083 30.286 187.083 30.082V23.386C187.083 23.194 187.101 23.02 187.137 22.864C187.185 22.696 187.281 22.564 187.425 22.468C187.581 22.372 187.827 22.324 188.163 22.324C188.499 22.324 188.739 22.372 188.883 22.468C189.039 22.564 189.135 22.696 189.171 22.864C189.207 23.032 189.225 23.218 189.225 23.422V30.1C189.225 30.304 189.207 30.49 189.171 30.658C189.135 30.814 189.039 30.94 188.883 31.036C188.739 31.132 188.493 31.18 188.145 31.18ZM188.145 20.578C187.797 20.578 187.539 20.53 187.371 20.434C187.215 20.326 187.113 20.182 187.065 20.002C187.029 19.822 187.011 19.624 187.011 19.408C187.011 19.18 187.029 18.982 187.065 18.814C187.113 18.646 187.221 18.514 187.389 18.418C187.557 18.31 187.815 18.256 188.163 18.256C188.523 18.256 188.781 18.31 188.937 18.418C189.093 18.526 189.195 18.67 189.243 18.85C189.291 19.018 189.315 19.216 189.315 19.444C189.315 19.648 189.291 19.84 189.243 20.02C189.195 20.2 189.093 20.338 188.937 20.434C188.781 20.53 188.517 20.578 188.145 20.578ZM195.246 31.288C194.67 31.288 194.106 31.18 193.554 30.964C193.014 30.736 192.522 30.418 192.078 30.01C191.646 29.602 191.298 29.122 191.034 28.57C190.782 28.018 190.656 27.412 190.656 26.752C190.656 26.116 190.776 25.522 191.016 24.97C191.256 24.418 191.586 23.932 192.006 23.512C192.426 23.092 192.906 22.768 193.446 22.54C193.998 22.3 194.586 22.18 195.21 22.18C196.05 22.18 196.812 22.384 197.496 22.792C198.18 23.188 198.726 23.728 199.134 24.412C199.542 25.096 199.746 25.87 199.746 26.734C199.746 27.418 199.62 28.042 199.368 28.606C199.116 29.158 198.774 29.638 198.342 30.046C197.91 30.442 197.424 30.748 196.884 30.964C196.356 31.18 195.81 31.288 195.246 31.288ZM195.21 29.164C195.606 29.164 195.984 29.068 196.344 28.876C196.716 28.672 197.016 28.384 197.244 28.012C197.484 27.64 197.604 27.202 197.604 26.698C197.604 26.23 197.496 25.816 197.28 25.456C197.076 25.096 196.794 24.814 196.434 24.61C196.074 24.406 195.66 24.304 195.192 24.304C194.748 24.304 194.346 24.412 193.986 24.628C193.626 24.832 193.338 25.12 193.122 25.492C192.918 25.852 192.816 26.26 192.816 26.716C192.816 27.22 192.93 27.658 193.158 28.03C193.386 28.39 193.68 28.672 194.04 28.876C194.412 29.068 194.802 29.164 195.21 29.164ZM209.441 31.162C208.889 31.162 208.367 31.048 207.875 30.82C207.383 30.592 206.951 30.28 206.579 29.884C206.207 29.476 205.913 29.002 205.697 28.462C205.481 27.91 205.373 27.322 205.373 26.698C205.373 26.098 205.481 25.534 205.697 25.006C205.913 24.466 206.207 23.998 206.579 23.602C206.963 23.194 207.401 22.876 207.893 22.648C208.385 22.42 208.901 22.306 209.441 22.306C210.017 22.306 210.533 22.42 210.989 22.648C211.445 22.876 211.829 23.194 212.141 23.602C212.465 23.998 212.711 24.466 212.879 25.006C213.047 25.534 213.137 26.104 213.149 26.716C213.149 27.328 213.065 27.904 212.897 28.444C212.741 28.972 212.501 29.44 212.177 29.848C211.865 30.256 211.475 30.58 211.007 30.82C210.551 31.048 210.029 31.162 209.441 31.162ZM209.729 29.056C210.149 29.056 210.521 28.96 210.845 28.768C211.181 28.564 211.445 28.288 211.637 27.94C211.841 27.592 211.943 27.196 211.943 26.752C211.943 26.296 211.841 25.894 211.637 25.546C211.445 25.198 211.181 24.922 210.845 24.718C210.521 24.514 210.149 24.412 209.729 24.412C209.309 24.412 208.931 24.514 208.595 24.718C208.259 24.91 207.989 25.186 207.785 25.546C207.593 25.894 207.497 26.296 207.497 26.752C207.497 27.196 207.593 27.592 207.785 27.94C207.989 28.288 208.259 28.564 208.595 28.768C208.943 28.96 209.321 29.056 209.729 29.056ZM213.059 31.162C212.723 31.162 212.477 31.108 212.321 31C212.165 30.88 212.063 30.694 212.015 30.442V19.354C212.015 19.15 212.027 18.97 212.051 18.814C212.087 18.646 212.177 18.514 212.321 18.418C212.477 18.31 212.717 18.256 213.041 18.256C213.389 18.256 213.635 18.304 213.779 18.4C213.923 18.496 214.013 18.628 214.049 18.796C214.097 18.952 214.121 19.132 214.121 19.336V30.064C214.121 30.268 214.103 30.454 214.067 30.622C214.031 30.79 213.935 30.922 213.779 31.018C213.635 31.114 213.395 31.162 213.059 31.162ZM220.031 31.288C219.455 31.288 218.891 31.18 218.339 30.964C217.799 30.736 217.307 30.418 216.863 30.01C216.431 29.602 216.083 29.122 215.819 28.57C215.567 28.018 215.441 27.412 215.441 26.752C215.441 26.116 215.561 25.522 215.801 24.97C216.041 24.418 216.371 23.932 216.791 23.512C217.211 23.092 217.691 22.768 218.231 22.54C218.783 22.3 219.371 22.18 219.995 22.18C220.835 22.18 221.597 22.384 222.281 22.792C222.965 23.188 223.511 23.728 223.919 24.412C224.327 25.096 224.531 25.87 224.531 26.734C224.531 27.418 224.405 28.042 224.153 28.606C223.901 29.158 223.559 29.638 223.127 30.046C222.695 30.442 222.209 30.748 221.669 30.964C221.141 31.18 220.595 31.288 220.031 31.288ZM219.995 29.164C220.391 29.164 220.769 29.068 221.129 28.876C221.501 28.672 221.801 28.384 222.029 28.012C222.269 27.64 222.389 27.202 222.389 26.698C222.389 26.23 222.281 25.816 222.065 25.456C221.861 25.096 221.579 24.814 221.219 24.61C220.859 24.406 220.445 24.304 219.977 24.304C219.533 24.304 219.131 24.412 218.771 24.628C218.411 24.832 218.123 25.12 217.907 25.492C217.703 25.852 217.601 26.26 217.601 26.716C217.601 27.22 217.715 27.658 217.943 28.03C218.171 28.39 218.465 28.672 218.825 28.876C219.197 29.068 219.587 29.164 219.995 29.164ZM231.671 31.162C231.335 31.162 231.089 31.114 230.933 31.018C230.789 30.922 230.693 30.79 230.645 30.622C230.609 30.442 230.591 30.256 230.591 30.064V19.678C230.591 19.486 230.615 19.312 230.663 19.156C230.711 18.988 230.807 18.856 230.951 18.76C231.107 18.652 231.353 18.598 231.689 18.598H235.541C236.093 18.598 236.615 18.688 237.107 18.868C237.611 19.036 238.061 19.3 238.457 19.66C238.853 20.008 239.165 20.452 239.393 20.992C239.633 21.52 239.753 22.138 239.753 22.846C239.753 23.314 239.681 23.782 239.537 24.25C239.393 24.706 239.177 25.132 238.889 25.528C238.613 25.912 238.259 26.242 237.827 26.518C237.395 26.794 236.885 26.974 236.297 27.058H232.769V30.082C232.769 30.274 232.745 30.454 232.697 30.622C232.661 30.79 232.565 30.922 232.409 31.018C232.265 31.114 232.019 31.162 231.671 31.162ZM239.339 30.892C238.991 31.132 238.703 31.222 238.475 31.162C238.259 31.102 238.043 30.91 237.827 30.586L234.803 26.014L237.233 25.69L239.627 29.326C239.795 29.566 239.897 29.77 239.933 29.938C239.969 30.106 239.939 30.262 239.843 30.406C239.747 30.55 239.579 30.712 239.339 30.892ZM232.769 24.898H235.811C236.027 24.898 236.237 24.862 236.441 24.79C236.657 24.706 236.849 24.58 237.017 24.412C237.185 24.232 237.317 24.016 237.413 23.764C237.521 23.5 237.575 23.188 237.575 22.828C237.575 22.396 237.491 22.03 237.323 21.73C237.155 21.418 236.915 21.184 236.603 21.028C236.303 20.86 235.937 20.776 235.505 20.776H232.769V24.898ZM246.884 31.27C246.044 31.27 245.294 31.12 244.634 30.82C243.986 30.508 243.44 30.082 242.996 29.542C242.552 28.99 242.216 28.366 241.988 27.67C241.76 26.962 241.646 26.212 241.646 25.42V19.678C241.646 19.474 241.664 19.294 241.7 19.138C241.748 18.97 241.844 18.838 241.988 18.742C242.144 18.634 242.396 18.58 242.744 18.58C243.092 18.58 243.338 18.634 243.482 18.742C243.638 18.838 243.734 18.97 243.77 19.138C243.818 19.294 243.842 19.48 243.842 19.696V25.42C243.842 26.08 243.95 26.692 244.166 27.256C244.394 27.808 244.736 28.252 245.192 28.588C245.648 28.924 246.23 29.092 246.938 29.092C247.574 29.092 248.12 28.942 248.576 28.642C249.032 28.342 249.38 27.916 249.62 27.364C249.872 26.812 249.998 26.158 249.998 25.402V19.588C249.998 19.396 250.016 19.228 250.052 19.084C250.1 18.94 250.202 18.82 250.358 18.724C250.514 18.628 250.76 18.58 251.096 18.58C251.444 18.58 251.69 18.634 251.834 18.742C251.99 18.838 252.086 18.97 252.122 19.138C252.158 19.306 252.176 19.492 252.176 19.696V25.456C252.176 26.248 252.062 26.998 251.834 27.706C251.606 28.402 251.264 29.02 250.808 29.56C250.352 30.088 249.794 30.508 249.134 30.82C248.486 31.12 247.736 31.27 246.884 31.27Z" fill="white"/>
<path d="M96 12V36" stroke="white"/>
</svg>
